<?xml version="1.0" standalone="no"?><!DOCTYPE svg PUBLIC "-//W3C//DTD SVG 1.1//EN" "http://www.w3.org/Graphics/SVG/1.1/DTD/svg11.dtd"><svg t="1721891917982" class="icon" viewBox="0 0 1024 1024" version="1.1" xmlns="http://www.w3.org/2000/svg" p-id="5394" xmlns:xlink="http://www.w3.org/1999/xlink" width="32" height="32"><path d="M181.413161 0h106.815312a21.581075 21.581075 0 0 1 21.537032 21.537032V108.015484a21.581075 21.581075 0 0 1-21.537032 21.537032h-106.815312A21.581075 21.581075 0 0 1 159.876129 108.015484V21.537032A21.581075 21.581075 0 0 1 181.413161 0z m674.034237 1014.839054h-106.815312a21.581075 21.581075 0 0 1-21.537032-21.537032V906.845591a21.581075 21.581075 0 0 1 21.537032-21.537032h106.815312a21.581075 21.581075 0 0 1 21.537032 21.537032v86.456431a21.581075 21.581075 0 0 1-21.537032 21.537032zM718.484645 296.651699H53.875613a21.581075 21.581075 0 0 1-21.537032-21.537032v-106.804301a21.581075 21.581075 0 0 1 21.537032-21.537033h734.075871c85.597591 0 89.043957-14.710366 89.043957 74.906151v457.761032a21.581075 21.581075 0 0 1-21.537032 21.537032h-106.815312a21.581075 21.581075 0 0 1-21.537032-21.537032V305.273118a8.63243 8.63243 0 0 0-8.62142-8.621419zM318.375914 718.198366h664.620043a21.581075 21.581075 0 0 1 21.537032 21.537032v106.815312a21.581075 21.581075 0 0 1-21.537032 21.537032H212.11114c-52.190968 0-52.246022 5.978839-52.246022-48.337204V335.409548a21.581075 21.581075 0 0 1 21.537033-21.537032h106.815311a21.581075 21.581075 0 0 1 21.537033 21.537032v374.178409c0.011011 4.734624 3.875785 8.610409 8.621419 8.610409z" fill="#434A54" p-id="5395"></path></svg>