<?xml version="1.0" standalone="no"?><!DOCTYPE svg PUBLIC "-//W3C//DTD SVG 1.1//EN" "http://www.w3.org/Graphics/SVG/1.1/DTD/svg11.dtd"><svg t="1721892968369" class="icon" viewBox="0 0 1024 1024" version="1.1" xmlns="http://www.w3.org/2000/svg" p-id="43068" xmlns:xlink="http://www.w3.org/1999/xlink" width="32" height="32"><path d="M533.930667 610.517333l272.64 163.584A42.666667 42.666667 0 0 1 784.64 853.333333H239.36a42.666667 42.666667 0 0 1-21.930667-79.232l272.64-163.584a42.666667 42.666667 0 0 1 43.861334 0zM170.666667 469.333333v85.333334H85.333333v-85.333334h85.333334z m128 0v85.333334H213.333333v-85.333334h85.333334z m128 0v85.333334H341.333333v-85.333334h85.333334z m128 0v85.333334h-85.333334v-85.333334h85.333334z m128 0v85.333334h-85.333334v-85.333334h85.333334z m128 0v85.333334h-85.333334v-85.333334h85.333334z m128 0v85.333334h-85.333334v-85.333334h85.333334z m-154.026667-291.584a42.666667 42.666667 0 0 1 21.930667 79.274667l-272.64 163.541333a42.666667 42.666667 0 0 1-43.861334 0l-272.64-163.541333a42.666667 42.666667 0 0 1 21.930667-79.274667z m-154.026667 85.333334H393.344L512 334.250667l118.613333-71.168z" fill="#121314" p-id="43069"></path></svg>