<?xml version="1.0" standalone="no"?><!DOCTYPE svg PUBLIC "-//W3C//DTD SVG 1.1//EN" "http://www.w3.org/Graphics/SVG/1.1/DTD/svg11.dtd"><svg t="1721892972791" class="icon" viewBox="0 0 1024 1024" version="1.1" xmlns="http://www.w3.org/2000/svg" p-id="43212" xmlns:xlink="http://www.w3.org/1999/xlink" width="32" height="32"><path d="M554.666667 768v85.333333h-85.333334v-85.333333h85.333334zM136.832 239.829333a42.666667 42.666667 0 0 1 30.165333 12.501334L405.333333 490.666667a42.666667 42.666667 0 0 1 0 60.330666L166.997333 789.333333a42.666667 42.666667 0 0 1-72.832-30.165333V282.453333a42.666667 42.666667 0 0 1 42.666667-42.666666zM896 230.997333a42.666667 42.666667 0 0 1 42.666667 42.666667v476.672a42.666667 42.666667 0 0 1-72.832 30.165333l-238.336-238.336a42.666667 42.666667 0 0 1 0-60.330666l238.336-238.336A42.666667 42.666667 0 0 1 896 230.997333zM554.666667 640v85.333333h-85.333334v-85.333333h85.333334zM179.498667 385.493333v270.634667l135.296-135.253333-135.253334-135.381334zM554.666667 512v85.333333h-85.333334v-85.333333h85.333334z m0-128v85.333333h-85.333334V384h85.333334z m0-128v85.333333h-85.333334V256h85.333334z m0-128v85.333333h-85.333334V128h85.333334z" fill="#121314" p-id="43213"></path></svg>