<svg width="40" height="40" viewBox="0 0 40 40" fill="none" xmlns="http://www.w3.org/2000/svg"><rect width="40" height="40" rx="8" fill="white"></rect><rect x="0.5" y="0.5" width="39" height="39" rx="7.5" stroke="black" stroke-opacity="0.2"></rect><path fill-rule="evenodd" clip-rule="evenodd" d="M10 6C7.79086 6 6 7.79086 6 10V30C6 32.2091 7.79086 34 10 34H30C32.2091 34 34 32.2091 34 30V10C34 7.79086 32.2091 6 30 6H10ZM8 10C8 8.89543 8.89543 8 10 8H14V15H8V10ZM14 17H8V23H14V17ZM16 23V17H32V23H16ZM14 25H8V30C8 31.1046 8.89543 32 10 32H14V25ZM16 32V25H32V30C32 31.1046 31.1046 32 30 32H16ZM16 15V8H30C31.1046 8 32 8.89543 32 10V15H16Z" fill="black" fill-opacity="0.9"></path></svg>