<svg width="40" height="40" viewBox="0 0 40 40" fill="none" xmlns="http://www.w3.org/2000/svg"><rect width="40" height="40" rx="8" fill="white"></rect><rect x="0.5" y="0.5" width="39" height="39" rx="7.5" stroke="black" stroke-opacity="0.2"></rect><path fill-rule="evenodd" clip-rule="evenodd" d="M24 12C24 13.8382 22.7125 15.3937 21.0234 15.862L21.0844 16.1232L22.2429 21.1436H17.7571L18.5638 17.6477L18.9817 15.862C17.2926 15.3937 16 13.8382 16 12C16 9.79086 17.7909 8 20 8C22.2091 8 24 9.79086 24 12ZM16.6622 16.9936C15.0544 15.9178 14 14.0828 14 12C14 8.68629 16.6863 6 20 6C23.3137 6 26 8.68629 26 12C26 14.0841 24.9465 15.92 23.3383 16.9955L24.3326 21.3042L28.2169 22.1674L29 22.3414V23.1436V28.1436V29.1436H28H12H11V28.1436V23.1436V22.3414L11.7831 22.1674L15.6674 21.3042L16.6622 16.9936ZM27 23.9457L23.3902 23.1436H16.6098L13 23.9457V27.1436H27V23.9457ZM12 34.1436V32.1436H28V34.1436H12Z" fill="black" fill-opacity="0.9"></path></svg>