<svg width="72" height="136" viewBox="8 10 76 136" fill="none" xmlns="http://www.w3.org/2000/svg"><g filter="url(#filter0_dddd_5186_59156)"><mask id="mask0_5186_59156" maskUnits="userSpaceOnUse" x="18" y="42" width="56" height="104" style="mask-type: alpha;"><path fill-rule="evenodd" clip-rule="evenodd" d="M46 42H38.6877C36.651 42 35 43.651 35 45.6877V52.7536C35 65.7533 29.8239 78.2181 20.6154 87.3939C18.9411 89.0622 18 91.3286 18 93.6921V99.9765V146H46H74V99.9765V93.6921C74 91.3286 73.0589 89.0622 71.3846 87.3939C62.1761 78.2181 57 65.7533 57 52.7536V45.6877C57 43.651 55.349 42 53.3123 42H46Z" fill="white"></path></mask><g mask="url(#mask0_5186_59156)"><mask id="path-2-inside-1_5186_59156" fill="white"><path fill-rule="evenodd" clip-rule="evenodd" d="M46 42H38.6877C36.651 42 35 43.651 35 45.6877V52.7536C35 65.7533 29.8239 78.2181 20.6154 87.3939C18.9411 89.0622 18 91.3286 18 93.6921V99.9765V146H46H74V99.9765V93.6921C74 91.3286 73.0589 89.0622 71.3846 87.3939C62.1761 78.2181 57 65.7533 57 52.7536V45.6877C57 43.651 55.349 42 53.3123 42H46Z"></path></mask><path fill-rule="evenodd" clip-rule="evenodd" d="M46 42H38.6877C36.651 42 35 43.651 35 45.6877V52.7536C35 65.7533 29.8239 78.2181 20.6154 87.3939C18.9411 89.0622 18 91.3286 18 93.6921V99.9765V146H46H74V99.9765V93.6921C74 91.3286 73.0589 89.0622 71.3846 87.3939C62.1761 78.2181 57 65.7533 57 52.7536V45.6877C57 43.651 55.349 42 53.3123 42H46Z" fill="#FDFDFD"></path><path d="M20.6154 87.3939L20.9683 87.7481H20.9683L20.6154 87.3939ZM18 146H17.5V146.5H18V146ZM74 146V146.5H74.5V146H74ZM71.3846 87.3939L71.0317 87.7481L71.3846 87.3939ZM38.6877 42.5H46V41.5H38.6877V42.5ZM35.5 45.6877C35.5 43.9272 36.9272 42.5 38.6877 42.5V41.5C36.3749 41.5 34.5 43.3749 34.5 45.6877H35.5ZM35.5 52.7536V45.6877H34.5V52.7536H35.5ZM20.9683 87.7481C30.271 78.4784 35.5 65.8863 35.5 52.7536H34.5C34.5 65.6204 29.3769 77.9577 20.2625 87.0397L20.9683 87.7481ZM18.5 93.6921C18.5 91.4615 19.3882 89.3226 20.9683 87.7481L20.2625 87.0397C18.494 88.8019 17.5 91.1956 17.5 93.6921H18.5ZM18.5 99.9765V93.6921H17.5V99.9765H18.5ZM18.5 146V99.9765H17.5V146H18.5ZM46 145.5H18V146.5H46V145.5ZM46 146.5H74V145.5H46V146.5ZM74.5 146V99.9765H73.5V146H74.5ZM74.5 99.9765V93.6921H73.5V99.9765H74.5ZM74.5 93.6921C74.5 91.1956 73.506 88.8019 71.7375 87.0397L71.0317 87.7481C72.6118 89.3226 73.5 91.4615 73.5 93.6921H74.5ZM71.7375 87.0397C62.6231 77.9577 57.5 65.6204 57.5 52.7536H56.5C56.5 65.8863 61.729 78.4784 71.0317 87.7481L71.7375 87.0397ZM57.5 52.7536V45.6877H56.5V52.7536H57.5ZM57.5 45.6877C57.5 43.3749 55.6251 41.5 53.3123 41.5V42.5C55.0728 42.5 56.5 43.9272 56.5 45.6877H57.5ZM53.3123 41.5H46V42.5H53.3123V41.5Z" fill="black" fill-opacity="0.25" mask="url(#path-2-inside-1_5186_59156)"></path><g filter="url(#filter1_f_5186_59156)"><mask id="path-4-inside-2_5186_59156" fill="white"><path fill-rule="evenodd" clip-rule="evenodd" d="M46 42H38.6877C36.651 42 35 43.651 35 45.6877V52.7536C35 65.7533 29.8239 78.2181 20.6154 87.3939C18.9411 89.0622 18 91.3286 18 93.6921V99.9765V146H46H74V99.9765V93.6921C74 91.3286 73.0589 89.0622 71.3846 87.3939C62.1761 78.2181 57 65.7533 57 52.7536V45.6877C57 43.651 55.349 42 53.3123 42H46Z"></path></mask><path d="M20.6154 87.3939L22.7329 89.519L22.7329 89.519L20.6154 87.3939ZM18 146H15V149H18V146ZM74 146V149H77V146H74ZM71.3846 87.3939L69.2671 89.519L69.2671 89.519L71.3846 87.3939ZM38.6877 45H46V39H38.6877V45ZM38 45.6877C38 45.3079 38.3079 45 38.6877 45V39C34.9942 39 32 41.9942 32 45.6877H38ZM38 52.7536V45.6877H32V52.7536H38ZM22.7329 89.519C32.5064 79.7803 38 66.5508 38 52.7536H32C32 64.9558 27.1415 76.6559 18.4978 85.2688L22.7329 89.519ZM21 93.6921C21 92.1261 21.6236 90.6244 22.7329 89.519L18.4978 85.2688C16.2586 87.5001 15 90.5311 15 93.6921H21ZM21 99.9765V93.6921H15V99.9765H21ZM21 146V99.9765H15V146H21ZM46 143H18V149H46V143ZM46 149H74V143H46V149ZM77 146V99.9765H71V146H77ZM77 99.9765V93.6921H71V99.9765H77ZM77 93.6921C77 90.5311 75.7414 87.5001 73.5022 85.2688L69.2671 89.519C70.3764 90.6244 71 92.1261 71 93.6921H77ZM73.5022 85.2688C64.8585 76.6559 60 64.9558 60 52.7536H54C54 66.5508 59.4936 79.7803 69.2671 89.519L73.5022 85.2688ZM60 52.7536V45.6877H54V52.7536H60ZM60 45.6877C60 41.9942 57.0058 39 53.3123 39V45C53.6921 45 54 45.3079 54 45.6877H60ZM53.3123 39H46V45H53.3123V39Z" fill="black" fill-opacity="0.2" mask="url(#path-4-inside-2_5186_59156)"></path></g><g filter="url(#filter2_f_5186_59156)"><mask id="path-6-inside-3_5186_59156" fill="white"><path fill-rule="evenodd" clip-rule="evenodd" d="M46 42H38.6877C36.651 42 35 43.651 35 45.6877V52.7536C35 65.7533 29.8239 78.2181 20.6154 87.3939C18.9411 89.0622 18 91.3286 18 93.6921V99.9765V146H46H74V99.9765V93.6921C74 91.3286 73.0589 89.0622 71.3846 87.3939C62.1761 78.2181 57 65.7533 57 52.7536V45.6877C57 43.651 55.349 42 53.3123 42H46Z"></path></mask><path d="M20.6154 87.3939L21.3212 88.1023L21.3212 88.1023L20.6154 87.3939ZM18 146H17V147H18V146ZM74 146V147H75V146H74ZM71.3846 87.3939L70.6788 88.1023L70.6788 88.1023L71.3846 87.3939ZM38.6877 43H46V41H38.6877V43ZM36 45.6877C36 44.2033 37.2033 43 38.6877 43V41C36.0988 41 34 43.0988 34 45.6877H36ZM36 52.7536V45.6877H34V52.7536H36ZM21.3212 88.1023C30.7181 78.7388 36 66.0192 36 52.7536H34C34 65.4875 28.9298 77.6973 19.9095 86.6855L21.3212 88.1023ZM19 93.6921C19 91.5944 19.8353 89.583 21.3212 88.1023L19.9095 86.6855C18.0469 88.5415 17 91.0627 17 93.6921H19ZM19 99.9765V93.6921H17V99.9765H19ZM19 146V99.9765H17V146H19ZM46 145H18V147H46V145ZM46 147H74V145H46V147ZM75 146V99.9765H73V146H75ZM75 99.9765V93.6921H73V99.9765H75ZM75 93.6921C75 91.0627 73.9531 88.5415 72.0905 86.6855L70.6788 88.1023C72.1647 89.583 73 91.5944 73 93.6921H75ZM72.0905 86.6855C63.0702 77.6973 58 65.4875 58 52.7536H56C56 66.0192 61.2819 78.7388 70.6788 88.1023L72.0905 86.6855ZM58 52.7536V45.6877H56V52.7536H58ZM58 45.6877C58 43.0988 55.9012 41 53.3123 41V43C54.7967 43 56 44.2033 56 45.6877H58ZM53.3123 41H46V43H53.3123V41Z" fill="black" fill-opacity="0.4" mask="url(#path-6-inside-3_5186_59156)"></path></g><g filter="url(#filter3_f_5186_59156)"><path d="M45.6877 42C43.651 42 41 43.651 41 45.6877V52.7536C41 65.7533 39.8239 78.2181 30.6154 87.3939C28.9411 89.0622 28 91.3286 28 93.6921V146H64V93.6921C64 91.3286 63.0589 89.0622 61.3846 87.3939C52.1761 78.2181 51 65.7533 51 52.7536V45.6877C51 43.651 48.349 42 46.3123 42H45.6877Z" fill="white"></path></g><rect x="18" y="98" width="56" height="52" fill="rgba(255, 238, 0, 1)" class="delightful_toolbar--easeInDltItemFill--rGBLG"></rect><rect x="18" y="98" width="56" height="52" fill="url(#paint0_linear_5186_59156)"></rect><rect x="18" y="98" width="56" height="52" fill="url(#paint1_linear_5186_59156)"></rect><rect x="18.25" y="98.25" width="55.5" height="51.5" stroke="black" stroke-opacity="0.3" stroke-width="0.5"></rect></g><path d="M38 32.693C38 32.2762 38.2586 31.903 38.6489 31.7567L52.6489 26.5067C53.3026 26.2615 54 26.7448 54 27.443V42.5H38V32.693Z" fill="rgba(255, 238, 0, 1)" class="delightful_toolbar--easeInDltItemFill--rGBLG"></path><path d="M38.7367 31.9908L52.7367 26.7408C53.227 26.5569 53.75 26.9193 53.75 27.443V42.25H38.25V32.693C38.25 32.3804 38.4439 32.1005 38.7367 31.9908Z" stroke="black" stroke-opacity="0.3" stroke-width="0.5"></path></g><defs><filter id="filter0_dddd_5186_59156" x="0" y="0.442139" width="92" height="155.558" filterUnits="userSpaceOnUse" color-interpolation-filters="sRGB"><feFlood flood-opacity="0" result="BackgroundImageFix"></feFlood><feColorMatrix in="SourceAlpha" type="matrix" values="0 0 0 0 0 0 0 0 0 0 0 0 0 0 0 0 0 0 127 0" result="hardAlpha"></feColorMatrix><feOffset dy="-1"></feOffset><feGaussianBlur stdDeviation="0.520312"></feGaussianBlur><feColorMatrix type="matrix" values="0 0 0 0 0 0 0 0 0 0 0 0 0 0 0 0 0 0 0.026 0"></feColorMatrix><feBlend mode="normal" in2="BackgroundImageFix" result="effect1_dropShadow_5186_59156"></feBlend><feColorMatrix in="SourceAlpha" type="matrix" values="0 0 0 0 0 0 0 0 0 0 0 0 0 0 0 0 0 0 127 0" result="hardAlpha"></feColorMatrix><feOffset></feOffset><feGaussianBlur stdDeviation="1.4625"></feGaussianBlur><feColorMatrix type="matrix" values="0 0 0 0 0 0 0 0 0 0 0 0 0 0 0 0 0 0 0.04 0"></feColorMatrix><feBlend mode="normal" in2="effect1_dropShadow_5186_59156" result="effect2_dropShadow_5186_59156"></feBlend><feColorMatrix in="SourceAlpha" type="matrix" values="0 0 0 0 0 0 0 0 0 0 0 0 0 0 0 0 0 0 127 0" result="hardAlpha"></feColorMatrix><feOffset dy="-1"></feOffset><feGaussianBlur stdDeviation="3.92344"></feGaussianBlur><feColorMatrix type="matrix" values="0 0 0 0 0 0 0 0 0 0 0 0 0 0 0 0 0 0 0.054 0"></feColorMatrix><feBlend mode="normal" in2="effect2_dropShadow_5186_59156" result="effect3_dropShadow_5186_59156"></feBlend><feColorMatrix in="SourceAlpha" type="matrix" values="0 0 0 0 0 0 0 0 0 0 0 0 0 0 0 0 0 0 127 0" result="hardAlpha"></feColorMatrix><feOffset dy="-8"></feOffset><feGaussianBlur stdDeviation="9"></feGaussianBlur><feColorMatrix type="matrix" values="0 0 0 0 0 0 0 0 0 0 0 0 0 0 0 0 0 0 0.08 0"></feColorMatrix><feBlend mode="normal" in2="effect3_dropShadow_5186_59156" result="effect4_dropShadow_5186_59156"></feBlend><feBlend mode="normal" in="SourceGraphic" in2="effect4_dropShadow_5186_59156" result="shape"></feBlend></filter><filter id="filter1_f_5186_59156" x="8" y="32" width="76" height="124" filterUnits="userSpaceOnUse" color-interpolation-filters="sRGB"><feFlood flood-opacity="0" result="BackgroundImageFix"></feFlood><feBlend mode="normal" in="SourceGraphic" in2="BackgroundImageFix" result="shape"></feBlend><feGaussianBlur stdDeviation="5" result="effect1_foregroundBlur_5186_59156"></feGaussianBlur></filter><filter id="filter2_f_5186_59156" x="12" y="36" width="68" height="116" filterUnits="userSpaceOnUse" color-interpolation-filters="sRGB"><feFlood flood-opacity="0" result="BackgroundImageFix"></feFlood><feBlend mode="normal" in="SourceGraphic" in2="BackgroundImageFix" result="shape"></feBlend><feGaussianBlur stdDeviation="3" result="effect1_foregroundBlur_5186_59156"></feGaussianBlur></filter><filter id="filter3_f_5186_59156" x="22" y="36" width="48" height="116" filterUnits="userSpaceOnUse" color-interpolation-filters="sRGB"><feFlood flood-opacity="0" result="BackgroundImageFix"></feFlood><feBlend mode="normal" in="SourceGraphic" in2="BackgroundImageFix" result="shape"></feBlend><feGaussianBlur stdDeviation="3" result="effect1_foregroundBlur_5186_59156"></feGaussianBlur></filter><linearGradient id="paint0_linear_5186_59156" x1="74" y1="125.04" x2="18" y2="125.04" gradientUnits="userSpaceOnUse"><stop stop-opacity="0"></stop><stop offset="0.166394" stop-color="white" stop-opacity="0.08"></stop><stop offset="0.516647" stop-color="white" stop-opacity="0.16"></stop><stop offset="0.824577" stop-color="white" stop-opacity="0.08"></stop><stop offset="1" stop-opacity="0"></stop></linearGradient><linearGradient id="paint1_linear_5186_59156" x1="18" y1="122" x2="74" y2="122" gradientUnits="userSpaceOnUse"><stop stop-opacity="0.12"></stop><stop offset="0.173337" stop-opacity="0"></stop><stop offset="0.831435" stop-opacity="0"></stop><stop offset="1" stop-opacity="0.12"></stop></linearGradient></defs></svg>