<svg width="48" height="136" viewBox="20 0 48 136" fill="none" xmlns="http://www.w3.org/2000/svg"><path d="M39.3445 33C37.3713 33 35.6436 34.3242 35.1308 36.2296L21.338 85.3986C20.4502 88.5634 20.0001 91.8349 20.0001 95.1218L20 136H68V95.1388C68 91.8408 67.5468 88.5585 66.6532 85.384L52.8339 36.2922C52.3435 34.356 50.6011 33 48.6038 33H39.3445Z" fill="white"></path><path d="M35.3715 36.2972L35.3716 36.2972L35.3722 36.2946C35.8557 34.4983 37.4844 33.25 39.3445 33.25H48.6038C50.4867 33.25 52.1292 34.5284 52.5915 36.3536L52.5915 36.3536L52.5932 36.3599L66.4125 85.4517C67.3 88.6042 67.75 91.8638 67.75 95.1388V135.75H20.25L20.2501 95.1218C20.2501 91.8577 20.6971 88.6089 21.5787 85.4661L35.3715 36.2972Z" stroke="white" stroke-width="0.5"></path><path d="M42.5019 17.1186C42.6985 16.4551 43.308 16 44 16V16C44.692 16 45.3015 16.4551 45.4981 17.1186L50.5 34H37.5L42.5019 17.1186Z" fill="white"></path></svg>