<svg fill="none" height="48" width="48" viewBox="0 0 144 144" xmlns="http://www.w3.org/2000/svg" class="delightful_toolbar--hasDropShadow--Jr9fo delightful_toolbar--shapeSpawnAnimation--bHVVH"><path d="M68.787 17.721c1.324-2.295 5.102-2.295 6.426 0l56.403 97.771c1.195 2.071-.542 4.508-3.213 4.508H15.597c-2.67 0-4.408-2.437-3.213-4.508l56.403-97.77z" fill="rgba(228, 204, 255, 1)" class="delightful_toolbar--easeInDltItemFill--rGBLG" stroke="#000000" stroke-width="0" stroke-dasharray="" stroke-linecap="round"></path><path d="M130.75 115.992L130.75 115.992C131.134 116.658 131.057 117.364 130.645 117.942C130.223 118.534 129.432 119 128.403 119H15.5971C14.5693 119 13.7776 118.534 13.3555 117.942C12.9431 117.364 12.8659 116.658 13.2503 115.992L13.2503 115.992L69.6533 18.221C70.0992 17.4482 70.9999 17 72.0001 17C73.0004 17 73.9011 17.4482 74.347 18.221L130.75 115.992Z" stroke="#000000" stroke-width="1.3684210526315788" stroke-opacity="0.2" stroke-dasharray="" stroke-linecap="round" class=""></path></svg>