<svg width="31" height="34" viewBox="0 0 32 34" fill="none" xmlns="http://www.w3.org/2000/svg"><path fill-rule="evenodd" clip-rule="evenodd" d="M22.7929 1.70711C22.4024 1.31658 22.4024 0.683417 22.7929 0.292893C23.1834 -0.0976311 23.8166 -0.0976311 24.2071 0.292893L30.2071 6.29289C30.5976 6.68342 30.5976 7.31658 30.2071 7.70711L24.2071 13.7071C23.8166 14.0976 23.1834 14.0976 22.7929 13.7071C22.4024 13.3166 22.4024 12.6834 22.7929 12.2929L27.0858 8H20.6834C17.922 8 15.6834 10.2386 15.6834 13V27C15.6834 30.866 12.5494 34 8.68341 34H1.5C0.947715 34 0.5 33.5523 0.5 33C0.5 32.4477 0.947715 32 1.5 32H8.68341C11.4448 32 13.6834 29.7614 13.6834 27V13C13.6834 9.13401 16.8174 6 20.6834 6H27.0858L22.7929 1.70711Z" fill="rgba(179, 179, 179, 1)"></path></svg>