<svg width="64" height="96" viewBox="0 0 64 96" fill="none" xmlns="http://www.w3.org/2000/svg"><g clip-path="url(#clip0_5186_59372)"><g filter="url(#filter0_dddd_5186_59372)"><mask id="mask0_5186_59372" maskUnits="userSpaceOnUse" x="12" y="23" width="40" height="75" style="mask-type: alpha;"><path fill-rule="evenodd" clip-rule="evenodd" d="M32 23.4285H26.7769C25.3222 23.4285 24.1429 24.6078 24.1429 26.0625V31.1096C24.1429 40.3951 20.4457 49.2985 13.8681 55.8527C12.6722 57.0444 12 58.6632 12 60.3514V64.8403V97.7142H32L52 97.7142V64.8403V60.3515C52 58.6632 51.3278 57.0444 50.1318 55.8527C43.5543 49.2985 39.8571 40.3952 39.8571 31.1096V26.0626C39.8571 24.6078 38.6778 23.4285 37.223 23.4285H32V23.4285Z" fill="white"></path></mask><g mask="url(#mask0_5186_59372)"><mask id="path-2-inside-1_5186_59372" fill="white"><path fill-rule="evenodd" clip-rule="evenodd" d="M32 23.4285H26.7769C25.3222 23.4285 24.1429 24.6078 24.1429 26.0625V31.1096C24.1429 40.3951 20.4457 49.2985 13.8681 55.8527C12.6722 57.0444 12 58.6632 12 60.3514V64.8403V97.7142H32L52 97.7142V64.8403V60.3515C52 58.6632 51.3278 57.0444 50.1318 55.8527C43.5543 49.2985 39.8571 40.3952 39.8571 31.1096V26.0626C39.8571 24.6078 38.6778 23.4285 37.223 23.4285H32V23.4285Z"></path></mask><path fill-rule="evenodd" clip-rule="evenodd" d="M32 23.4285H26.7769C25.3222 23.4285 24.1429 24.6078 24.1429 26.0625V31.1096C24.1429 40.3951 20.4457 49.2985 13.8681 55.8527C12.6722 57.0444 12 58.6632 12 60.3514V64.8403V97.7142H32L52 97.7142V64.8403V60.3515C52 58.6632 51.3278 57.0444 50.1318 55.8527C43.5543 49.2985 39.8571 40.3952 39.8571 31.1096V26.0626C39.8571 24.6078 38.6778 23.4285 37.223 23.4285H32V23.4285Z" fill="#FDFDFD"></path><path d="M32 23.4285H32.5V22.9285H32V23.4285ZM13.8681 55.8527L14.2211 56.2069H14.2211L13.8681 55.8527ZM12 97.7142H11.5V98.2142H12V97.7142ZM32 97.7142V97.2142V97.7142ZM52 97.7142V98.2142H52.5V97.7142H52ZM50.1318 55.8527L49.7789 56.2069L50.1318 55.8527ZM32 23.4285H31.5V23.9285H32V23.4285ZM26.7769 23.9285H32V22.9285H26.7769V23.9285ZM24.6429 26.0625C24.6429 24.8839 25.5983 23.9285 26.7769 23.9285V22.9285C25.046 22.9285 23.6429 24.3316 23.6429 26.0625H24.6429ZM24.6429 31.1096V26.0625H23.6429V31.1096H24.6429ZM14.2211 56.2069C20.8927 49.5589 24.6429 40.528 24.6429 31.1096H23.6429C23.6429 40.2622 19.9986 49.0382 13.5152 55.4985L14.2211 56.2069ZM12.5 60.3514C12.5 58.7961 13.1193 57.3047 14.2211 56.2069L13.5152 55.4985C12.2251 56.784 11.5 58.5302 11.5 60.3514H12.5ZM12.5 64.8403V60.3514H11.5V64.8403H12.5ZM12.5 97.7142V64.8403H11.5V97.7142H12.5ZM32 97.2142H12V98.2142H32V97.2142ZM32 98.2142L52 98.2142V97.2142L32 97.2142V98.2142ZM52.5 97.7142V64.8403H51.5V97.7142H52.5ZM52.5 64.8403V60.3515H51.5V64.8403H52.5ZM52.5 60.3515C52.5 58.5303 51.7748 56.784 50.4848 55.4985L49.7789 56.2069C50.8807 57.3047 51.5 58.7961 51.5 60.3515H52.5ZM50.4848 55.4985C44.0014 49.0382 40.3571 40.2622 40.3571 31.1096H39.3571C39.3571 40.5281 43.1072 49.5589 49.7789 56.2069L50.4848 55.4985ZM40.3571 31.1096V26.0626H39.3571V31.1096H40.3571ZM40.3571 26.0626C40.3571 24.3317 38.9539 22.9285 37.223 22.9285V23.9285C38.4017 23.9285 39.3571 24.8839 39.3571 26.0626H40.3571ZM37.223 22.9285H32V23.9285H37.223V22.9285ZM31.5 23.4285V23.4285H32.5V23.4285H31.5Z" fill="black" fill-opacity="0.3" mask="url(#path-2-inside-1_5186_59372)"></path><g filter="url(#filter1_f_5186_59372)"><mask id="path-4-inside-2_5186_59372" fill="white"><path fill-rule="evenodd" clip-rule="evenodd" d="M32 23.4285H26.7769C25.3222 23.4285 24.1429 24.6078 24.1429 26.0625V31.1096C24.1429 40.3951 20.4457 49.2985 13.8681 55.8527C12.6722 57.0444 12 58.6632 12 60.3514V64.8403V97.7142H32L52 97.7142V64.8403V60.3515C52 58.6632 51.3278 57.0444 50.1318 55.8527C43.5543 49.2985 39.8571 40.3952 39.8571 31.1096V26.0626C39.8571 24.6078 38.6778 23.4285 37.223 23.4285H32V23.4285Z"></path></mask><path d="M32 23.4285H34.1429V21.2856H32V23.4285ZM13.8681 55.8527L15.3807 57.3706L15.3807 57.3706L13.8681 55.8527ZM12 97.7142H9.85714V99.857H12V97.7142ZM32 97.7142L32 95.5713H32V97.7142ZM52 97.7142L52 99.8571H54.1428V97.7142H52ZM50.1318 55.8527L48.6193 57.3706L48.6193 57.3706L50.1318 55.8527ZM32 23.4285H29.8571V25.5714H32V23.4285ZM26.7769 25.5713H32V21.2856H26.7769V25.5713ZM26.2857 26.0625C26.2857 25.7912 26.5056 25.5713 26.7769 25.5713V21.2856C24.1387 21.2856 22 23.4243 22 26.0625H26.2857ZM26.2857 31.1096V26.0625H22V31.1096H26.2857ZM15.3807 57.3706C22.3617 50.4144 26.2857 40.9648 26.2857 31.1096H22C22 39.8255 18.5296 48.1827 12.3556 54.3348L15.3807 57.3706ZM14.1429 60.3514C14.1429 59.2328 14.5883 58.1602 15.3807 57.3706L12.3556 54.3348C10.7562 55.9285 9.85714 58.0935 9.85714 60.3514H14.1429ZM14.1429 64.8403V60.3514H9.85714V64.8403H14.1429ZM14.1429 97.7142V64.8403H9.85714V97.7142H14.1429ZM32 95.5713H12V99.857H32V95.5713ZM32 99.857L52 99.8571L52 95.5714L32 95.5713L32 99.857ZM54.1428 97.7142V64.8403H49.8571V97.7142H54.1428ZM54.1428 64.8403V60.3515H49.8571V64.8403H54.1428ZM54.1428 60.3515C54.1428 58.0935 53.2438 55.9285 51.6444 54.3348L48.6193 57.3706C49.4117 58.1602 49.8571 59.2328 49.8571 60.3515H54.1428ZM51.6444 54.3348C45.4703 48.1827 42 39.8255 42 31.1096H37.7143C37.7143 40.9648 41.6383 50.4144 48.6193 57.3706L51.6444 54.3348ZM42 31.1096V26.0626H37.7143V31.1096H42ZM42 26.0626C42 23.4243 39.8613 21.2856 37.223 21.2856V25.5714C37.4943 25.5714 37.7143 25.7913 37.7143 26.0626H42ZM37.223 21.2856H32V25.5714H37.223V21.2856ZM29.8571 23.4285V23.4285H34.1429V23.4285H29.8571Z" fill="black" fill-opacity="0.25" mask="url(#path-4-inside-2_5186_59372)"></path></g><g filter="url(#filter2_f_5186_59372)"><mask id="path-6-inside-3_5186_59372" fill="white"><path fill-rule="evenodd" clip-rule="evenodd" d="M32 23.4285H26.7769C25.3222 23.4285 24.1429 24.6078 24.1429 26.0625V31.1096C24.1429 40.3951 20.4457 49.2985 13.8681 55.8527C12.6722 57.0444 12 58.6632 12 60.3514V64.8403V97.7142H32L52 97.7142V64.8403V60.3515C52 58.6632 51.3278 57.0444 50.1318 55.8527C43.5543 49.2985 39.8571 40.3952 39.8571 31.1096V26.0626C39.8571 24.6078 38.6778 23.4285 37.223 23.4285H32V23.4285Z"></path></mask><path d="M32 23.4285H32.71V22.7185H32V23.4285ZM13.8681 55.8527L14.3693 56.3556L13.8681 55.8527ZM12 97.7142H11.29V98.4242H12V97.7142ZM32 97.7142L32 97.0042H32V97.7142ZM52 97.7142V98.4242H52.71V97.7142H52ZM50.1318 55.8527L49.6307 56.3557V56.3557L50.1318 55.8527ZM32 23.4285H31.29V24.1385H32V23.4285ZM26.7769 24.1385H32V22.7185H26.7769V24.1385ZM24.8529 26.0625C24.8529 24.9999 25.7143 24.1385 26.7769 24.1385V22.7185C24.93 22.7185 23.4329 24.2157 23.4329 26.0625H24.8529ZM24.8529 31.1096V26.0625H23.4329V31.1096H24.8529ZM14.3693 56.3556C21.0805 49.6682 24.8529 40.5839 24.8529 31.1096H23.4329C23.4329 40.2064 19.8108 48.9288 13.367 55.3497L14.3693 56.3556ZM12.71 60.3514C12.71 58.8519 13.3071 57.4141 14.3693 56.3556L13.367 55.3497C12.0374 56.6746 11.29 58.4744 11.29 60.3514H12.71ZM12.71 64.8403V60.3514H11.29V64.8403H12.71ZM12.71 97.7142V64.8403H11.29V97.7142H12.71ZM32 97.0042H12V98.4242H32V97.0042ZM32 98.4242L52 98.4242V97.0042L32 97.0042L32 98.4242ZM52.71 97.7142V64.8403H51.29V97.7142H52.71ZM52.71 64.8403V60.3515H51.29V64.8403H52.71ZM52.71 60.3515C52.71 58.4744 51.9626 56.6747 50.633 55.3498L49.6307 56.3557C50.6929 57.4141 51.29 58.8519 51.29 60.3515H52.71ZM50.633 55.3498C44.1891 48.9288 40.5671 40.2064 40.5671 31.1096H39.1471C39.1471 40.5839 42.9194 49.6683 49.6307 56.3557L50.633 55.3498ZM40.5671 31.1096V26.0626H39.1471V31.1096H40.5671ZM40.5671 26.0626C40.5671 24.2157 39.0699 22.7185 37.223 22.7185V24.1385C38.2857 24.1385 39.1471 24.9999 39.1471 26.0626H40.5671ZM37.223 22.7185H32V24.1385H37.223V22.7185ZM31.29 23.4285V23.4285H32.71V23.4285H31.29Z" fill="black" fill-opacity="0.4" mask="url(#path-6-inside-3_5186_59372)"></path></g><g filter="url(#filter3_f_5186_59372)"><path d="M31.7766 23.4285C30.3219 23.4285 28.4283 24.6078 28.4283 26.0625V31.1096C28.4283 40.3951 27.5882 49.2985 21.0107 55.8527C19.8148 57.0444 19.1426 58.6632 19.1426 60.3514V97.7142H44.8569V60.3514C44.8569 58.6632 44.1846 57.0444 42.9887 55.8527C36.4112 49.2985 35.5711 40.3951 35.5711 31.1096V26.0625C35.5711 24.6078 33.6775 23.4285 32.2228 23.4285H31.7766Z" fill="white"></path></g><path d="M12 63H52V100.572H12V63Z" fill="rgba(255, 238, 0, 1)" class="delightful_toolbar--easeInDltItemFill--rGBLG"></path><path d="M12 63H52V100.572H12V63Z" fill="url(#paint0_linear_5186_59372)"></path><path d="M12 63H52V100.572H12V63Z" fill="url(#paint1_linear_5186_59372)"></path><path d="M12.25 63.25H51.75V100.322H12.25V63.25Z" stroke="black" stroke-opacity="0.3" stroke-width="0.5"></path></g><path d="M26.2856 16.7807C26.2856 16.483 26.4703 16.2165 26.7491 16.1119L36.7491 12.3619C37.2161 12.1868 37.7142 12.532 37.7142 13.0307V24H26.2856V16.7807Z" fill="rgba(255, 238, 0, 1)" class="delightful_toolbar--easeInDltItemFill--rGBLG"></path><path d="M26.5356 16.7807C26.5356 16.5872 26.6557 16.4139 26.8369 16.346L36.8369 12.596C37.1404 12.4822 37.4642 12.7065 37.4642 13.0307V23.75H26.5356V16.7807Z" stroke="black" stroke-opacity="0.3" stroke-width="0.5"></path></g></g><defs><filter id="filter0_dddd_5186_59372" x="-0.857142" y="-6.25575" width="65.7143" height="111.113" filterUnits="userSpaceOnUse" color-interpolation-filters="sRGB"><feFlood flood-opacity="0" result="BackgroundImageFix"></feFlood><feColorMatrix in="SourceAlpha" type="matrix" values="0 0 0 0 0 0 0 0 0 0 0 0 0 0 0 0 0 0 127 0" result="hardAlpha"></feColorMatrix><feOffset dy="-0.714286"></feOffset><feGaussianBlur stdDeviation="0.371652"></feGaussianBlur><feColorMatrix type="matrix" values="0 0 0 0 0 0 0 0 0 0 0 0 0 0 0 0 0 0 0.026 0"></feColorMatrix><feBlend mode="normal" in2="BackgroundImageFix" result="effect1_dropShadow_5186_59372"></feBlend><feColorMatrix in="SourceAlpha" type="matrix" values="0 0 0 0 0 0 0 0 0 0 0 0 0 0 0 0 0 0 127 0" result="hardAlpha"></feColorMatrix><feOffset></feOffset><feGaussianBlur stdDeviation="1.04464"></feGaussianBlur><feColorMatrix type="matrix" values="0 0 0 0 0 0 0 0 0 0 0 0 0 0 0 0 0 0 0.04 0"></feColorMatrix><feBlend mode="normal" in2="effect1_dropShadow_5186_59372" result="effect2_dropShadow_5186_59372"></feBlend><feColorMatrix in="SourceAlpha" type="matrix" values="0 0 0 0 0 0 0 0 0 0 0 0 0 0 0 0 0 0 127 0" result="hardAlpha"></feColorMatrix><feOffset dy="-0.714286"></feOffset><feGaussianBlur stdDeviation="2.80246"></feGaussianBlur><feColorMatrix type="matrix" values="0 0 0 0 0 0 0 0 0 0 0 0 0 0 0 0 0 0 0.054 0"></feColorMatrix><feBlend mode="normal" in2="effect2_dropShadow_5186_59372" result="effect3_dropShadow_5186_59372"></feBlend><feColorMatrix in="SourceAlpha" type="matrix" values="0 0 0 0 0 0 0 0 0 0 0 0 0 0 0 0 0 0 127 0" result="hardAlpha"></feColorMatrix><feOffset dy="-5.71429"></feOffset><feGaussianBlur stdDeviation="6.42857"></feGaussianBlur><feColorMatrix type="matrix" values="0 0 0 0 0 0 0 0 0 0 0 0 0 0 0 0 0 0 0.08 0"></feColorMatrix><feBlend mode="normal" in2="effect3_dropShadow_5186_59372" result="effect4_dropShadow_5186_59372"></feBlend><feBlend mode="normal" in="SourceGraphic" in2="effect4_dropShadow_5186_59372" result="shape"></feBlend></filter><filter id="filter1_f_5186_59372" x="4.85714" y="16.2856" width="54.2857" height="88.5714" filterUnits="userSpaceOnUse" color-interpolation-filters="sRGB"><feFlood flood-opacity="0" result="BackgroundImageFix"></feFlood><feBlend mode="normal" in="SourceGraphic" in2="BackgroundImageFix" result="shape"></feBlend><feGaussianBlur stdDeviation="3.57143" result="effect1_foregroundBlur_5186_59372"></feGaussianBlur></filter><filter id="filter2_f_5186_59372" x="7.71429" y="19.1428" width="48.5714" height="82.8571" filterUnits="userSpaceOnUse" color-interpolation-filters="sRGB"><feFlood flood-opacity="0" result="BackgroundImageFix"></feFlood><feBlend mode="normal" in="SourceGraphic" in2="BackgroundImageFix" result="shape"></feBlend><feGaussianBlur stdDeviation="2.14286" result="effect1_foregroundBlur_5186_59372"></feGaussianBlur></filter><filter id="filter3_f_5186_59372" x="14.8569" y="19.1428" width="34.2858" height="82.8571" filterUnits="userSpaceOnUse" color-interpolation-filters="sRGB"><feFlood flood-opacity="0" result="BackgroundImageFix"></feFlood><feBlend mode="normal" in="SourceGraphic" in2="BackgroundImageFix" result="shape"></feBlend><feGaussianBlur stdDeviation="2.14286" result="effect1_foregroundBlur_5186_59372"></feGaussianBlur></filter><linearGradient id="paint0_linear_5186_59372" x1="52" y1="82.5372" x2="12" y2="82.5372" gradientUnits="userSpaceOnUse"><stop stop-opacity="0"></stop><stop offset="0.166394" stop-color="white" stop-opacity="0.08"></stop><stop offset="0.516647" stop-color="white" stop-opacity="0.16"></stop><stop offset="0.824577" stop-color="white" stop-opacity="0.08"></stop><stop offset="1" stop-opacity="0"></stop></linearGradient><linearGradient id="paint1_linear_5186_59372" x1="12" y1="80.3407" x2="52" y2="80.3407" gradientUnits="userSpaceOnUse"><stop stop-opacity="0.12"></stop><stop offset="0.173337" stop-opacity="0"></stop><stop offset="0.831435" stop-opacity="0"></stop><stop offset="1" stop-opacity="0.12"></stop></linearGradient><clipPath id="clip0_5186_59372"><rect width="64" height="96" fill="white"></rect></clipPath></defs></svg>