<?xml version="1.0" standalone="no"?><!DOCTYPE svg PUBLIC "-//W3C//DTD SVG 1.1//EN" "http://www.w3.org/Graphics/SVG/1.1/DTD/svg11.dtd"><svg t="1719914969528" class="icon" viewBox="0 0 1024 1024" version="1.1" xmlns="http://www.w3.org/2000/svg" p-id="14053" xmlns:xlink="http://www.w3.org/1999/xlink" width="200" height="200"><path d="M0 0h1024v1024H0z" fill="#FFFFFF" fill-opacity="0.01" p-id="14054"></path><path d="M512 928a416 416 0 1 1 294.16-710.152c35.776 35.776 113.768 123.576 113.768 123.576l-47.856 42.496c-0.088-0.104-76.224-85.872-111.2-120.8A352 352 0 1 0 512 864a349.688 349.688 0 0 0 248.904-103.096 32 32 0 1 1 45.256 45.256A413.272 413.272 0 0 1 512 928z" fill="#CCCCCC" p-id="14055"></path><path d="M896 394.688H725.328a32 32 0 1 1 0-64H864V192a32 32 0 1 1 64 0v170.688a32 32 0 0 1-32 32z" fill="#CCCCCC" p-id="14056"></path></svg>