<?xml version="1.0" standalone="no"?><!DOCTYPE svg PUBLIC "-//W3C//DTD SVG 1.1//EN" "http://www.w3.org/Graphics/SVG/1.1/DTD/svg11.dtd"><svg t="1719913943574" class="icon" viewBox="0 0 1024 1024" version="1.1" xmlns="http://www.w3.org/2000/svg" p-id="11212" xmlns:xlink="http://www.w3.org/1999/xlink" width="200" height="200"><path d="M834.844 802.228L544.142 511.526l290.702-290.702c7.396-7.396 7.396-19.437 0-26.833-7.395-7.395-19.437-7.395-26.832 0L517.31 484.693 226.702 194.086c-7.395-7.396-19.437-7.396-26.832 0-7.396 7.395-7.396 19.437 0 26.833L490.572 511.62 199.87 802.228c-7.396 7.396-7.396 19.437 0 26.833s19.437 7.395 26.832 0l290.702-290.702L808.107 829.06c7.395 7.395 19.437 7.395 26.832 0 7.301-7.49 7.301-19.437-0.095-26.833z" fill="#FF0000" p-id="11213"></path></svg>