<svg xmlns="http://www.w3.org/2000/svg" xmlns:xlink="http://www.w3.org/1999/xlink" width="40" height="40" viewBox="0 0 40 40" fill="none">
<path d="M8.66644 1.88889C8.69008 1.88889 8.71371 1.88946 8.7373 1.89062C8.76094 1.89178 8.78449 1.89352 8.80801 1.89584C8.83156 1.89816 8.855 1.90105 8.87836 1.90452C8.90176 1.90799 8.92504 1.91203 8.94824 1.91664C8.97145 1.92125 8.99449 1.92643 9.01742 1.93217C9.04035 1.93792 9.06313 1.94422 9.08574 1.95108C9.10836 1.95794 9.13078 1.96536 9.15305 1.97332C9.17531 1.98128 9.19738 1.98979 9.21918 1.99883C9.24105 2.00788 9.26266 2.01746 9.28402 2.02757C9.30539 2.03767 9.32648 2.0483 9.34734 2.05944C9.3682 2.07059 9.38875 2.08223 9.40902 2.09439C9.42934 2.10654 9.4493 2.11918 9.46891 2.13232C9.48859 2.14545 9.50789 2.15906 9.52687 2.17314C9.54586 2.18722 9.56449 2.20176 9.58277 2.21676C9.60106 2.23175 9.61895 2.24719 9.63645 2.26307C9.65398 2.27894 9.67109 2.29524 9.68781 2.31195C9.70453 2.32867 9.72082 2.34578 9.73668 2.3633C9.75258 2.38082 9.76801 2.39871 9.78301 2.41698C9.79801 2.43526 9.81258 2.45389 9.82664 2.47287C9.8407 2.49186 9.85434 2.51118 9.86746 2.53084C9.88059 2.55049 9.89324 2.57046 9.90539 2.59074C9.91754 2.61101 9.92918 2.63157 9.94031 2.65242C9.95148 2.67327 9.96211 2.69438 9.97219 2.71575C9.9823 2.73712 9.99187 2.75872 10.0009 2.78056C10.01 2.8024 10.0185 2.82445 10.0264 2.84671C10.0344 2.86897 10.0418 2.89141 10.0487 2.91403C10.0555 2.93665 10.0619 2.95942 10.0676 2.98236C10.0734 3.00529 10.0785 3.02835 10.0831 3.05153C10.0877 3.07471 10.0918 3.098 10.0952 3.12139C10.0987 3.14477 10.1016 3.16822 10.1039 3.19175C10.1062 3.21528 10.108 3.23884 10.1091 3.26245C10.1103 3.28607 10.1109 3.30969 10.1109 3.33333L10.1109 29.8889L36.6664 29.8889C36.6901 29.8889 36.7137 29.8895 36.7373 29.8906C36.7609 29.8918 36.7845 29.8935 36.808 29.8958C36.8315 29.8982 36.855 29.9011 36.8784 29.9045C36.9018 29.908 36.925 29.912 36.9482 29.9166C36.9714 29.9212 36.9945 29.9264 37.0174 29.9322C37.0404 29.9379 37.0631 29.9442 37.0857 29.9511C37.1084 29.9579 37.1308 29.9653 37.153 29.9733C37.1753 29.9813 37.1974 29.9898 37.2192 29.9988C37.2411 30.0079 37.2627 30.0175 37.284 30.0276C37.3054 30.0377 37.3265 30.0483 37.3473 30.0594C37.3682 30.0706 37.3887 30.0822 37.409 30.0944C37.4293 30.1065 37.4493 30.1192 37.4689 30.1323C37.4886 30.1454 37.5079 30.159 37.5269 30.1731C37.5459 30.1872 37.5645 30.2017 37.5828 30.2167C37.6011 30.2317 37.6189 30.2472 37.6364 30.2631C37.654 30.2789 37.6711 30.2952 37.6878 30.3119C37.7045 30.3287 37.7208 30.3458 37.7367 30.3633C37.7526 30.3808 37.768 30.3987 37.783 30.417C37.798 30.4353 37.8125 30.4539 37.8266 30.4729C37.8407 30.4919 37.8543 30.5112 37.8674 30.5308C37.8806 30.5505 37.8932 30.5704 37.9053 30.5907C37.9175 30.611 37.9292 30.6315 37.9403 30.6524C37.9515 30.6733 37.9621 30.6944 37.9722 30.7157C37.9823 30.7371 37.9919 30.7587 38.0009 30.7805C38.01 30.8024 38.0185 30.8244 38.0264 30.8467C38.0344 30.869 38.0418 30.8914 38.0487 30.914C38.0555 30.9367 38.0619 30.9594 38.0676 30.9823C38.0734 31.0053 38.0785 31.0283 38.0831 31.0515C38.0877 31.0747 38.0918 31.098 38.0952 31.1213C38.0987 31.1447 38.1016 31.1682 38.1039 31.1917C38.1063 31.2153 38.108 31.2388 38.1091 31.2624C38.1103 31.2861 38.1109 31.3097 38.1109 31.3333C38.1109 31.357 38.1103 31.3806 38.1091 31.4042C38.108 31.4278 38.1063 31.4514 38.1039 31.4749C38.1016 31.4984 38.0987 31.5219 38.0952 31.5453C38.0918 31.5687 38.0877 31.5919 38.0831 31.6151C38.0785 31.6383 38.0734 31.6614 38.0676 31.6843C38.0619 31.7072 38.0555 31.73 38.0487 31.7526C38.0418 31.7753 38.0344 31.7977 38.0264 31.8199C38.0185 31.8422 38.01 31.8642 38.0009 31.8861C37.9919 31.9079 37.9823 31.9296 37.9722 31.9509C37.9621 31.9723 37.9515 31.9934 37.9403 32.0142C37.9292 32.0351 37.9175 32.0556 37.9054 32.0759C37.8932 32.0962 37.8806 32.1161 37.8675 32.1358C37.8543 32.1555 37.8407 32.1748 37.8266 32.1938C37.8125 32.2128 37.798 32.2314 37.783 32.2497C37.768 32.2679 37.7526 32.2858 37.7367 32.3033C37.7208 32.3209 37.7045 32.338 37.6878 32.3547C37.6711 32.3714 37.654 32.3877 37.6364 32.4036C37.6189 32.4195 37.6011 32.4349 37.5828 32.4499C37.5645 32.4649 37.5459 32.4794 37.5269 32.4935C37.5079 32.5076 37.4886 32.5212 37.4689 32.5343C37.4493 32.5474 37.4293 32.5601 37.409 32.5722C37.3887 32.5844 37.3682 32.5961 37.3473 32.6072C37.3265 32.6184 37.3054 32.629 37.284 32.6391C37.2627 32.6492 37.2411 32.6588 37.2192 32.6678C37.1974 32.6769 37.1753 32.6854 37.153 32.6933C37.1308 32.7013 37.1084 32.7087 37.0857 32.7156C37.0631 32.7224 37.0404 32.7287 37.0174 32.7345C36.9945 32.7402 36.9714 32.7454 36.9482 32.75C36.925 32.7546 36.9018 32.7587 36.8784 32.7621C36.855 32.7656 36.8315 32.7685 36.808 32.7708C36.7845 32.7731 36.7609 32.7749 36.7373 32.776C36.7137 32.7772 36.6901 32.7778 36.6664 32.7778L32.7775 32.7778L32.7775 36.6667C32.7775 36.6903 32.777 36.7139 32.7758 36.7375C32.7747 36.7612 32.7729 36.7847 32.7706 36.8082C32.7683 36.8317 32.7654 36.8552 32.7619 36.8786C32.7585 36.902 32.7544 36.9253 32.7498 36.9484C32.7452 36.9716 32.74 36.9947 32.7343 37.0176C32.7285 37.0406 32.7222 37.0633 32.7154 37.086C32.7085 37.1086 32.7011 37.131 32.6931 37.1533C32.6852 37.1755 32.6766 37.1976 32.6676 37.2194C32.6586 37.2413 32.649 37.2629 32.6389 37.2842C32.6288 37.3056 32.6182 37.3267 32.607 37.3476C32.5959 37.3684 32.5842 37.389 32.572 37.4092C32.5599 37.4296 32.5472 37.4495 32.5341 37.4691C32.521 37.4888 32.5074 37.5081 32.4933 37.5271C32.4792 37.5461 32.4647 37.5647 32.4497 37.583C32.4347 37.6013 32.4193 37.6192 32.4034 37.6367C32.3875 37.6542 32.3712 37.6713 32.3545 37.688C32.3378 37.7047 32.3207 37.721 32.3031 37.7369C32.2856 37.7528 32.2677 37.7682 32.2495 37.7832C32.2312 37.7982 32.2125 37.8128 32.1936 37.8268C32.1746 37.8409 32.1553 37.8545 32.1356 37.8676C32.1159 37.8808 32.096 37.8935 32.0757 37.9056C32.0554 37.9178 32.0349 37.9294 32.014 37.9405C31.9932 37.9517 31.9721 37.9623 31.9507 37.9724C31.9293 37.9825 31.9077 37.9921 31.8859 38.0012C31.864 38.0102 31.842 38.0187 31.8197 38.0267C31.7975 38.0346 31.775 38.042 31.7524 38.0489C31.7298 38.0558 31.707 38.0621 31.6841 38.0678C31.6612 38.0736 31.6381 38.0787 31.6149 38.0833C31.5917 38.0879 31.5684 38.092 31.545 38.0954C31.5217 38.0989 31.4982 38.1018 31.4747 38.1041C31.4512 38.1065 31.4276 38.1082 31.404 38.1094C31.3804 38.1105 31.3568 38.1111 31.3331 38.1111C31.3095 38.1111 31.2859 38.1105 31.2622 38.1094C31.2386 38.1082 31.215 38.1065 31.1915 38.1041C31.168 38.1018 31.1445 38.0989 31.1211 38.0954C31.0978 38.092 31.0745 38.0879 31.0513 38.0833C31.0281 38.0787 31.0051 38.0736 30.9821 38.0678C30.9592 38.0621 30.9364 38.0558 30.9138 38.0489C30.8912 38.042 30.8687 38.0346 30.8465 38.0267C30.8242 38.0187 30.8022 38.0102 30.7803 38.0012C30.7585 37.9921 30.7369 37.9825 30.7155 37.9724C30.6942 37.9623 30.673 37.9517 30.6522 37.9405C30.6313 37.9294 30.6108 37.9178 30.5905 37.9056C30.5702 37.8935 30.5503 37.8808 30.5306 37.8676C30.511 37.8545 30.4916 37.8409 30.4727 37.8268C30.4537 37.8128 30.435 37.7982 30.4168 37.7832C30.3985 37.7682 30.3806 37.7528 30.3631 37.7369C30.3456 37.721 30.3284 37.7047 30.3117 37.688C30.295 37.6713 30.2787 37.6542 30.2629 37.6367C30.247 37.6192 30.2315 37.6013 30.2165 37.583C30.2015 37.5647 30.187 37.5461 30.1729 37.5271C30.1588 37.5081 30.1452 37.4888 30.1321 37.4691C30.1189 37.4495 30.1063 37.4296 30.0941 37.4092C30.082 37.389 30.0704 37.3684 30.0592 37.3476C30.0481 37.3267 30.0375 37.3056 30.0273 37.2842C30.0173 37.2629 30.0077 37.2413 29.9986 37.2194C29.9896 37.1976 29.9811 37.1755 29.9731 37.1533C29.9651 37.131 29.9577 37.1086 29.9509 37.086C29.944 37.0633 29.9377 37.0406 29.932 37.0176C29.9262 36.9947 29.921 36.9717 29.9164 36.9485C29.9118 36.9253 29.9078 36.902 29.9043 36.8786C29.9009 36.8552 29.898 36.8317 29.8956 36.8082C29.8933 36.7847 29.8916 36.7612 29.8904 36.7375C29.8893 36.7139 29.8887 36.6903 29.8887 36.6667L29.8887 32.7778L8.88867 32.7778C8.86141 32.7778 8.83414 32.7771 8.80688 32.7758C8.77965 32.7744 8.75246 32.7724 8.72531 32.7697C8.69816 32.7671 8.67109 32.7637 8.6441 32.7597C8.61715 32.7557 8.59027 32.7511 8.56352 32.7457C8.53676 32.7404 8.51016 32.7344 8.48367 32.7278C8.45723 32.7212 8.43094 32.7139 8.40484 32.706C8.37875 32.6981 8.35289 32.6896 8.32719 32.6803C8.30149 32.6712 8.27605 32.6613 8.25086 32.6509C8.22566 32.6405 8.20074 32.6294 8.17605 32.6178C8.15141 32.6061 8.12707 32.5938 8.10301 32.581C8.07895 32.5681 8.05523 32.5547 8.0318 32.5406C8.00844 32.5266 7.98539 32.512 7.9627 32.4969C7.94004 32.4817 7.91773 32.466 7.89582 32.4498C7.87395 32.4335 7.85242 32.4168 7.83133 32.3994C7.81023 32.3822 7.78961 32.3644 7.76937 32.346C7.74918 32.3277 7.72945 32.3089 7.71016 32.2896C7.69086 32.2703 7.67207 32.2506 7.65375 32.2304C7.63543 32.2102 7.61762 32.1895 7.60031 32.1684C7.58301 32.1473 7.56621 32.1258 7.54996 32.1039C7.53371 32.0821 7.51805 32.0597 7.50289 32.037C7.48773 32.0144 7.47316 31.9913 7.4591 31.9679C7.44512 31.9445 7.43168 31.9208 7.41879 31.8967C7.40594 31.8727 7.39367 31.8484 7.38199 31.8237C7.37035 31.799 7.35934 31.7741 7.34887 31.7489C7.33844 31.7237 7.32863 31.6983 7.31941 31.6726C7.31023 31.6469 7.30168 31.621 7.29375 31.5949C7.28586 31.5688 7.27859 31.5426 7.27195 31.5161C7.26531 31.4896 7.25934 31.463 7.25402 31.4362C7.24871 31.4095 7.24402 31.3826 7.24004 31.3556C7.23605 31.3287 7.2327 31.3016 7.23 31.2745C7.22734 31.2473 7.22535 31.2201 7.22398 31.1929C7.22266 31.1656 7.22199 31.1384 7.22199 31.1111L7.22199 10.1111L3.33311 10.1111C3.30948 10.1111 3.28585 10.1105 3.26224 10.1094C3.23863 10.1082 3.21506 10.1065 3.19153 10.1041C3.16801 10.1018 3.14455 10.0989 3.12117 10.0954C3.09778 10.092 3.0745 10.0879 3.05132 10.0833C3.02813 10.0787 3.00507 10.0736 2.98214 10.0678C2.95921 10.0621 2.93644 10.0558 2.91382 10.0489C2.8912 10.042 2.86875 10.0346 2.8465 10.0267C2.82424 10.0187 2.80219 10.0102 2.78035 10.0012C2.75851 9.99209 2.73691 9.98252 2.71554 9.9724C2.69416 9.96232 2.67305 9.9517 2.65221 9.94053C2.63136 9.92939 2.6108 9.91775 2.59052 9.9056C2.57025 9.89346 2.55028 9.8808 2.53062 9.86767C2.51097 9.85455 2.49165 9.84092 2.47266 9.82681C2.45367 9.81275 2.43504 9.79822 2.41677 9.78322C2.3985 9.76822 2.3806 9.75279 2.36309 9.73689C2.34557 9.72103 2.32845 9.70474 2.31174 9.68803C2.29502 9.67131 2.27873 9.6542 2.26285 9.63666C2.24698 9.61916 2.23154 9.60127 2.21654 9.58299C2.20155 9.56471 2.18701 9.54607 2.17293 9.52709C2.15885 9.5081 2.14524 9.48881 2.1321 9.46912C2.11897 9.44951 2.10633 9.42955 2.09417 9.40924C2.08202 9.38896 2.07037 9.36842 2.05923 9.34756C2.04808 9.3267 2.03746 9.3056 2.02735 9.28424C2.01724 9.26287 2.00767 9.24127 1.99862 9.21939C1.98957 9.1976 1.98107 9.17553 1.97311 9.15326C1.96514 9.13099 1.95773 9.10857 1.95087 9.08596C1.94401 9.06334 1.9377 9.04057 1.93196 9.01764C1.92621 8.99471 1.92104 8.97166 1.91643 8.94846C1.91181 8.92525 1.90777 8.90197 1.9043 8.87857C1.90084 8.85521 1.89794 8.83178 1.89562 8.80822C1.89331 8.78471 1.89157 8.76115 1.89041 8.73752C1.88925 8.71392 1.88867 8.69029 1.88867 8.66666C1.88867 8.64303 1.88925 8.61939 1.89041 8.59576C1.89157 8.57217 1.89331 8.54861 1.89562 8.52506C1.89794 8.50154 1.90084 8.4781 1.9043 8.45471C1.90777 8.43135 1.91181 8.40807 1.91643 8.38486C1.92104 8.36166 1.92621 8.33861 1.93196 8.31568C1.9377 8.29275 1.94401 8.26998 1.95087 8.24736C1.95773 8.22474 1.96514 8.20228 1.97311 8.18002C1.98107 8.15779 1.98957 8.13576 1.99862 8.11389C2.00767 8.09205 2.01724 8.07045 2.02735 8.04908C2.03746 8.02771 2.04808 8.00658 2.05923 7.98572C2.07037 7.9649 2.08202 7.94435 2.09417 7.92404C2.10633 7.90381 2.11897 7.88385 2.1321 7.86416C2.14523 7.84451 2.15884 7.82517 2.17293 7.80619C2.18701 7.78721 2.20155 7.76857 2.21654 7.75029C2.23154 7.73205 2.24698 7.71416 2.26285 7.69662C2.27873 7.67912 2.29502 7.66197 2.31174 7.64525C2.32845 7.62857 2.34557 7.61228 2.36309 7.59639C2.3806 7.58053 2.3985 7.56506 2.41677 7.55006C2.43504 7.5351 2.45367 7.52057 2.47266 7.50646C2.49165 7.4924 2.51097 7.47877 2.53062 7.46564C2.55028 7.45252 2.57025 7.43986 2.59052 7.42771C2.6108 7.41557 2.63136 7.40392 2.65221 7.39275C2.67305 7.38162 2.69416 7.371 2.71554 7.36088C2.73691 7.3508 2.75851 7.34123 2.78035 7.33217C2.80219 7.3231 2.82424 7.31459 2.8465 7.30662C2.86875 7.29869 2.8912 7.29127 2.91382 7.28439C2.93644 7.27756 2.95921 7.27127 2.98214 7.26549C3.00507 7.25974 3.02813 7.25455 3.05132 7.24994C3.0745 7.24533 3.09778 7.24131 3.12117 7.23783C3.14455 7.23439 3.16801 7.2315 3.19153 7.22916C3.21506 7.22685 3.23863 7.2251 3.26224 7.22392C3.28585 7.22279 3.30948 7.22221 3.33311 7.22221L7.22199 7.22221L7.22199 3.33333C7.22199 3.30969 7.22258 3.28607 7.22371 3.26245C7.22488 3.23884 7.22664 3.21528 7.22895 3.19175C7.23129 3.16822 7.23418 3.14477 7.23762 3.12139C7.24109 3.098 7.24512 3.07471 7.24973 3.05153C7.25434 3.02835 7.25953 3.00529 7.26527 2.98236C7.27105 2.95942 7.27734 2.93665 7.28418 2.91403C7.29105 2.89141 7.29848 2.86897 7.30641 2.84671C7.31437 2.82445 7.32289 2.8024 7.33195 2.78057C7.34102 2.75873 7.35059 2.73712 7.36066 2.71575C7.37078 2.69438 7.38141 2.67327 7.39254 2.65242C7.40371 2.63157 7.41535 2.61101 7.4275 2.59074C7.43965 2.57046 7.4523 2.55049 7.46543 2.53084C7.47855 2.51118 7.49219 2.49186 7.50625 2.47287C7.52035 2.45389 7.53488 2.43526 7.54984 2.41698C7.56484 2.39871 7.58031 2.38082 7.59617 2.3633C7.61207 2.34578 7.62836 2.32867 7.64504 2.31195C7.66176 2.29524 7.67891 2.27894 7.69641 2.26307C7.71395 2.24719 7.73184 2.23175 7.75008 2.21676C7.76836 2.20176 7.78699 2.18722 7.80598 2.17314C7.82496 2.15906 7.8443 2.14545 7.86395 2.13232C7.88363 2.11918 7.90359 2.10654 7.92383 2.09439C7.94414 2.08223 7.96469 2.07059 7.98551 2.05944C8.00637 2.0483 8.0275 2.03767 8.04887 2.02757C8.07023 2.01746 8.09184 2.00788 8.11367 1.99883C8.13555 1.98979 8.15758 1.98128 8.1798 1.97332C8.20207 1.96536 8.22453 1.95794 8.24715 1.95108C8.26977 1.94422 8.29254 1.93792 8.31547 1.93217C8.3384 1.92643 8.36145 1.92125 8.38465 1.91664C8.40785 1.91203 8.43113 1.90799 8.45449 1.90452C8.47789 1.90105 8.50133 1.89816 8.52484 1.89584C8.5484 1.89352 8.57195 1.89178 8.59555 1.89062C8.61918 1.88946 8.64281 1.88889 8.66644 1.88889ZM31.3331 27.6111C31.3095 27.6111 31.2859 27.6105 31.2622 27.6094C31.2386 27.6082 31.215 27.6065 31.1915 27.6041C31.168 27.6018 31.1445 27.5989 31.1212 27.5954C31.0978 27.592 31.0745 27.5879 31.0513 27.5833C31.0281 27.5787 31.0051 27.5736 30.9821 27.5678C30.9592 27.5621 30.9364 27.5558 30.9138 27.5489C30.8912 27.542 30.8687 27.5346 30.8465 27.5267C30.8242 27.5187 30.8022 27.5102 30.7804 27.5012C30.7585 27.4921 30.7369 27.4825 30.7155 27.4724C30.6942 27.4623 30.673 27.4517 30.6522 27.4405C30.6313 27.4294 30.6108 27.4178 30.5905 27.4056C30.5702 27.3935 30.5503 27.3808 30.5306 27.3676C30.511 27.3545 30.4916 27.3409 30.4727 27.3268C30.4537 27.3128 30.435 27.2982 30.4168 27.2832C30.3985 27.2682 30.3806 27.2528 30.3631 27.2369C30.3456 27.221 30.3284 27.2047 30.3117 27.188C30.295 27.1713 30.2787 27.1542 30.2629 27.1367C30.247 27.1192 30.2315 27.1013 30.2165 27.083C30.2015 27.0647 30.187 27.0461 30.1729 27.0271C30.1588 27.0081 30.1452 26.9888 30.1321 26.9691C30.1189 26.9495 30.1063 26.9296 30.0941 26.9092C30.082 26.889 30.0704 26.8684 30.0592 26.8476C30.0481 26.8267 30.0375 26.8056 30.0273 26.7842C30.0173 26.7629 30.0077 26.7413 29.9986 26.7194C29.9896 26.6976 29.9811 26.6755 29.9731 26.6533C29.9651 26.631 29.9577 26.6086 29.9509 26.586C29.944 26.5633 29.9377 26.5406 29.932 26.5176C29.9262 26.4947 29.921 26.4717 29.9164 26.4485C29.9118 26.4253 29.9078 26.402 29.9043 26.3786C29.9009 26.3552 29.898 26.3317 29.8956 26.3082C29.8933 26.2847 29.8916 26.2612 29.8904 26.2375C29.8893 26.2139 29.8887 26.1903 29.8887 26.1667L29.8887 10.1111L13.8331 10.1111C13.8095 10.1111 13.7859 10.1105 13.7622 10.1094C13.7386 10.1082 13.715 10.1065 13.6915 10.1041C13.668 10.1018 13.6445 10.0989 13.6212 10.0954C13.5978 10.092 13.5745 10.0879 13.5513 10.0833C13.5281 10.0787 13.5051 10.0736 13.4821 10.0678C13.4592 10.0621 13.4364 10.0558 13.4138 10.0489C13.3912 10.042 13.3687 10.0346 13.3465 10.0267C13.3242 10.0187 13.3022 10.0102 13.2803 10.0012C13.2585 9.99209 13.2369 9.98252 13.2155 9.9724C13.1942 9.96232 13.173 9.9517 13.1522 9.94053C13.1314 9.92939 13.1108 9.91775 13.0905 9.9056C13.0702 9.89346 13.0503 9.8808 13.0306 9.86767C13.011 9.85455 12.9916 9.84092 12.9727 9.82681C12.9537 9.81275 12.935 9.79822 12.9168 9.78322C12.8985 9.76822 12.8806 9.75279 12.8631 9.73689C12.8456 9.72103 12.8284 9.70474 12.8117 9.68803C12.795 9.67131 12.7787 9.6542 12.7629 9.63666C12.747 9.61916 12.7315 9.60127 12.7165 9.58299C12.7015 9.56471 12.687 9.54607 12.6729 9.52709C12.6588 9.5081 12.6452 9.48881 12.6321 9.46912C12.6189 9.44951 12.6063 9.42955 12.5941 9.40924C12.582 9.38896 12.5704 9.36842 12.5592 9.34756C12.5481 9.3267 12.5375 9.3056 12.5273 9.28424C12.5173 9.26287 12.5077 9.24127 12.4986 9.21939C12.4896 9.1976 12.4811 9.17553 12.4731 9.15326C12.4651 9.13099 12.4577 9.10857 12.4509 9.08596C12.444 9.06334 12.4377 9.04057 12.432 9.01764C12.4262 8.99471 12.421 8.97166 12.4164 8.94846C12.4118 8.92525 12.4078 8.90197 12.4043 8.87857C12.4009 8.85521 12.398 8.83178 12.3956 8.80822C12.3933 8.78471 12.3916 8.76115 12.3904 8.73752C12.3893 8.71392 12.3887 8.69029 12.3887 8.66666C12.3887 8.64303 12.3893 8.61939 12.3904 8.59576C12.3916 8.57217 12.3933 8.54861 12.3956 8.52506C12.398 8.50154 12.4009 8.4781 12.4043 8.45471C12.4078 8.43135 12.4118 8.40807 12.4164 8.38486C12.421 8.36166 12.4262 8.33861 12.432 8.31568C12.4377 8.29275 12.444 8.26998 12.4509 8.24736C12.4577 8.22474 12.4651 8.20228 12.4731 8.18002C12.4811 8.15779 12.4896 8.13576 12.4986 8.11389C12.5077 8.09205 12.5173 8.07045 12.5273 8.04908C12.5375 8.02771 12.5481 8.00658 12.5592 7.98572C12.5704 7.9649 12.582 7.94435 12.5941 7.92404C12.6063 7.90381 12.6189 7.88385 12.6321 7.86416C12.6452 7.84451 12.6588 7.82517 12.6729 7.80619C12.687 7.78721 12.7015 7.76857 12.7165 7.75029C12.7315 7.73205 12.747 7.71416 12.7629 7.69662C12.7787 7.67912 12.795 7.66197 12.8117 7.64525C12.8284 7.62857 12.8456 7.61228 12.8631 7.59639C12.8806 7.58053 12.8985 7.56506 12.9168 7.55006C12.935 7.5351 12.9537 7.52057 12.9727 7.50646C12.9916 7.4924 13.011 7.47877 13.0306 7.46564C13.0503 7.45252 13.0702 7.43986 13.0905 7.42771C13.1108 7.41557 13.1314 7.40392 13.1522 7.39275C13.173 7.38162 13.1942 7.371 13.2155 7.36088C13.2369 7.3508 13.2585 7.34123 13.2804 7.33217C13.3022 7.3231 13.3242 7.31459 13.3465 7.30662C13.3687 7.29869 13.3912 7.29127 13.4138 7.28439C13.4364 7.27756 13.4592 7.27127 13.4821 7.26549C13.5051 7.25974 13.5281 7.25455 13.5513 7.24994C13.5745 7.24533 13.5978 7.24131 13.6212 7.23783C13.6445 7.23439 13.668 7.2315 13.6915 7.22916C13.715 7.22685 13.7386 7.2251 13.7622 7.22392C13.7859 7.22279 13.8095 7.22221 13.8331 7.22221L31.1109 7.22221C31.1382 7.22221 31.1654 7.22287 31.1927 7.2242C31.2199 7.22556 31.2471 7.22756 31.2743 7.23021C31.3014 7.23291 31.3285 7.23627 31.3554 7.24025C31.3824 7.24424 31.4093 7.24892 31.436 7.25424C31.4628 7.25955 31.4894 7.26553 31.5159 7.27217C31.5423 7.27881 31.5686 7.28607 31.5947 7.29396C31.6208 7.30189 31.6467 7.31045 31.6723 7.31963C31.698 7.32885 31.7235 7.33865 31.7487 7.34908C31.7739 7.35955 31.7988 7.37056 31.8235 7.38221C31.8482 7.39389 31.8725 7.40615 31.8965 7.419C31.9206 7.43189 31.9443 7.44533 31.9677 7.45932C31.9911 7.47338 32.0142 7.48795 32.0368 7.5031C32.0595 7.51826 32.0818 7.53392 32.1037 7.55017C32.1256 7.56642 32.1471 7.58322 32.1682 7.60053C32.1893 7.61783 32.21 7.63564 32.2302 7.65396C32.2504 7.67228 32.2701 7.69107 32.2894 7.71037C32.3087 7.72967 32.3275 7.74939 32.3458 7.76959C32.3641 7.78982 32.382 7.81045 32.3992 7.83154C32.4166 7.85264 32.4333 7.87416 32.4496 7.89603C32.4658 7.91795 32.4815 7.94025 32.4967 7.96291C32.5118 7.9856 32.5264 8.00865 32.5404 8.03201C32.5545 8.05545 32.5679 8.07916 32.5807 8.10322C32.5936 8.12728 32.6059 8.15162 32.6175 8.17627C32.6292 8.20096 32.6403 8.22588 32.6507 8.25107C32.6611 8.27627 32.6709 8.3017 32.6801 8.3274C32.6893 8.3531 32.6979 8.37896 32.7058 8.40506C32.7137 8.43115 32.721 8.45744 32.7276 8.48388C32.7343 8.51037 32.7402 8.53697 32.7455 8.56373C32.7509 8.59049 32.7555 8.61736 32.7595 8.64432C32.7635 8.67131 32.7669 8.69838 32.7695 8.72553C32.7722 8.75267 32.7742 8.77986 32.7755 8.80709C32.7769 8.83435 32.7775 8.86162 32.7775 8.88889L32.7775 26.1667C32.7775 26.1903 32.777 26.2139 32.7758 26.2375C32.7747 26.2612 32.7729 26.2847 32.7706 26.3082C32.7683 26.3317 32.7654 26.3552 32.7619 26.3786C32.7585 26.402 32.7544 26.4253 32.7498 26.4485C32.7452 26.4717 32.74 26.4947 32.7343 26.5176C32.7285 26.5406 32.7222 26.5633 32.7154 26.586C32.7085 26.6086 32.7011 26.631 32.6931 26.6533C32.6852 26.6755 32.6766 26.6976 32.6676 26.7194C32.6586 26.7413 32.649 26.7629 32.6389 26.7842C32.6288 26.8056 32.6182 26.8267 32.607 26.8476C32.5959 26.8684 32.5842 26.889 32.572 26.9092C32.5599 26.9296 32.5472 26.9495 32.5341 26.9691C32.521 26.9888 32.5074 27.0081 32.4933 27.0271C32.4792 27.0461 32.4647 27.0647 32.4497 27.083C32.4347 27.1013 32.4193 27.1192 32.4034 27.1367C32.3875 27.1542 32.3712 27.1713 32.3545 27.188C32.3378 27.2047 32.3207 27.221 32.3031 27.2369C32.2856 27.2528 32.2677 27.2682 32.2495 27.2832C32.2312 27.2982 32.2125 27.3128 32.1936 27.3268C32.1746 27.3409 32.1553 27.3545 32.1356 27.3676C32.1159 27.3808 32.096 27.3935 32.0757 27.4056C32.0554 27.4178 32.0349 27.4294 32.014 27.4405C31.9932 27.4517 31.9721 27.4623 31.9507 27.4724C31.9293 27.4825 31.9077 27.4921 31.8859 27.5012C31.864 27.5102 31.842 27.5187 31.8197 27.5267C31.7975 27.5346 31.775 27.542 31.7524 27.5489C31.7298 27.5558 31.707 27.5621 31.6841 27.5678C31.6612 27.5736 31.6381 27.5787 31.6149 27.5833C31.5917 27.5879 31.5684 27.592 31.545 27.5954C31.5217 27.5989 31.4982 27.6018 31.4747 27.6041C31.4512 27.6065 31.4276 27.6082 31.404 27.6094C31.3804 27.6105 31.3568 27.6111 31.3331 27.6111ZM12.3109 25.8244C12.2941 25.8412 12.2779 25.8583 12.262 25.8758C12.2461 25.8933 12.2306 25.9113 12.2156 25.9296C12.2006 25.9478 12.1861 25.9665 12.172 25.9855C12.1579 26.0045 12.1443 26.0238 12.1311 26.0435C12.118 26.0632 12.1053 26.0831 12.0931 26.1035C12.081 26.1238 12.0693 26.1443 12.0582 26.1652C12.047 26.186 12.0364 26.2072 12.0262 26.2286C12.0162 26.25 12.0066 26.2716 11.9975 26.2934C11.9884 26.3153 11.9799 26.3374 11.972 26.3596C11.964 26.3819 11.9566 26.4044 11.9497 26.427C11.9429 26.4497 11.9366 26.4724 11.9308 26.4954C11.925 26.5183 11.9198 26.5414 11.9152 26.5646C11.9106 26.5878 11.9066 26.6112 11.9031 26.6346C11.8996 26.6579 11.8968 26.6814 11.8944 26.7049C11.8921 26.7285 11.8904 26.7521 11.8892 26.7757C11.888 26.7994 11.8875 26.823 11.8875 26.8467C11.8875 26.8703 11.888 26.894 11.8892 26.9176C11.8904 26.9412 11.8921 26.9648 11.8944 26.9883C11.8968 27.0119 11.8996 27.0354 11.9031 27.0588C11.9066 27.0822 11.9106 27.1055 11.9152 27.1287C11.9198 27.1519 11.925 27.175 11.9308 27.1979C11.9366 27.2209 11.9429 27.2437 11.9497 27.2663C11.9566 27.289 11.964 27.3114 11.972 27.3337C11.9799 27.356 11.9884 27.378 11.9975 27.3999C12.0066 27.4217 12.0162 27.4434 12.0262 27.4647C12.0364 27.4862 12.047 27.5072 12.0582 27.5281C12.0693 27.549 12.081 27.5696 12.0931 27.5899C12.1053 27.6102 12.118 27.6301 12.1311 27.6498C12.1443 27.6695 12.1579 27.6888 12.172 27.7078C12.1861 27.7268 12.2006 27.7455 12.2156 27.7638C12.2306 27.782 12.2461 27.8 12.262 27.8175C12.2779 27.835 12.2941 27.8522 12.3109 27.8689C12.3276 27.8856 12.3448 27.9019 12.3623 27.9178C12.3798 27.9337 12.3977 27.9492 12.416 27.9642C12.4343 27.9792 12.453 27.9937 12.472 28.0078C12.4909 28.0219 12.5103 28.0355 12.53 28.0487C12.5496 28.0618 12.5696 28.0745 12.5899 28.0866C12.6102 28.0988 12.6308 28.1104 12.6516 28.1216C12.6725 28.1328 12.6936 28.1434 12.715 28.1535C12.7364 28.1636 12.758 28.1732 12.7799 28.1822C12.8018 28.1913 12.8238 28.1998 12.8461 28.2078C12.8684 28.2158 12.8908 28.2232 12.9134 28.2301C12.9361 28.2369 12.9589 28.2432 12.9818 28.249C13.0048 28.2547 13.0279 28.2599 13.0511 28.2645C13.0743 28.2691 13.0976 28.2732 13.121 28.2767C13.1444 28.2801 13.1679 28.283 13.1914 28.2853C13.215 28.2877 13.2386 28.2894 13.2621 28.2905C13.2858 28.2917 13.3095 28.2923 13.3331 28.2923C13.3568 28.2923 13.3804 28.2917 13.404 28.2905C13.4277 28.2894 13.4513 28.2877 13.4748 28.2853C13.4984 28.283 13.5218 28.2801 13.5452 28.2767C13.5686 28.2732 13.5919 28.2691 13.6151 28.2645C13.6383 28.2599 13.6614 28.2547 13.6844 28.249C13.7073 28.2432 13.7301 28.2369 13.7527 28.2301C13.7754 28.2232 13.7979 28.2158 13.8201 28.2078C13.8424 28.1998 13.8645 28.1913 13.8863 28.1822C13.9082 28.1732 13.9298 28.1636 13.9512 28.1535C13.9726 28.1434 13.9937 28.1328 14.0146 28.1216C14.0354 28.1104 14.056 28.0988 14.0763 28.0866C14.0966 28.0745 14.1166 28.0618 14.1362 28.0487C14.1559 28.0355 14.1753 28.0219 14.1943 28.0078C14.2133 27.9937 14.2319 27.9792 14.2502 27.9642C14.2685 27.9492 14.2864 27.9337 14.3039 27.9178C14.3215 27.9019 14.3386 27.8856 14.3553 27.8689L27.8664 14.3555C27.8832 14.3388 27.8995 14.3217 27.9153 14.3042C27.9312 14.2867 27.9466 14.2688 27.9616 14.2505C27.9766 14.2322 27.9912 14.2136 28.0052 14.1946C28.0193 14.1756 28.033 14.1563 28.0461 14.1367C28.0592 14.117 28.0719 14.0971 28.084 14.0768C28.0962 14.0565 28.1079 14.036 28.119 14.0151C28.1302 13.9943 28.1408 13.9732 28.1509 13.9518C28.161 13.9304 28.1705 13.9088 28.1796 13.887C28.1887 13.8651 28.1971 13.8431 28.2051 13.8208C28.2131 13.7986 28.2205 13.7762 28.2274 13.7535C28.2343 13.7309 28.2405 13.7081 28.2463 13.6852C28.2521 13.6623 28.2572 13.6392 28.2618 13.616C28.2665 13.5929 28.2705 13.5696 28.274 13.5462C28.2775 13.5228 28.2804 13.4994 28.2827 13.4758C28.285 13.4523 28.2868 13.4287 28.2879 13.4051C28.2891 13.3815 28.2897 13.3579 28.2897 13.3342C28.2897 13.3106 28.2891 13.287 28.288 13.2634C28.2868 13.2398 28.2851 13.2162 28.2828 13.1927C28.2805 13.1692 28.2776 13.1457 28.2741 13.1223C28.2707 13.0989 28.2666 13.0756 28.262 13.0524C28.2574 13.0293 28.2523 13.0062 28.2465 12.9833C28.2408 12.9604 28.2345 12.9376 28.2276 12.9149C28.2208 12.8923 28.2134 12.8699 28.2054 12.8476C28.1975 12.8253 28.189 12.8033 28.1799 12.7815C28.1709 12.7596 28.1613 12.738 28.1512 12.7166C28.1411 12.6953 28.1305 12.6742 28.1194 12.6533C28.1083 12.6324 28.0966 12.6119 28.0845 12.5916C28.0723 12.5713 28.0597 12.5513 28.0466 12.5317C28.0334 12.512 28.0198 12.4927 28.0058 12.4737C27.9917 12.4547 27.9772 12.4361 27.9622 12.4178C27.9472 12.3995 27.9318 12.3816 27.9159 12.3641C27.9 12.3466 27.8837 12.3294 27.867 12.3127C27.8504 12.296 27.8332 12.2797 27.8157 12.2638C27.7982 12.2479 27.7804 12.2324 27.7621 12.2174C27.7438 12.2024 27.7252 12.1879 27.7062 12.1738C27.6872 12.1597 27.6679 12.1461 27.6483 12.1329C27.6286 12.1198 27.6087 12.1072 27.5884 12.095C27.5682 12.0828 27.5476 12.0712 27.5267 12.06C27.5059 12.0488 27.4848 12.0382 27.4634 12.0281C27.4421 12.018 27.4205 12.0084 27.3986 11.9993C27.3768 11.9903 27.3548 11.9817 27.3325 11.9737C27.3103 11.9658 27.2879 11.9583 27.2652 11.9515C27.2426 11.9446 27.2198 11.9383 27.1969 11.9325C27.174 11.9267 27.1509 11.9215 27.1277 11.9169C27.1046 11.9123 27.0813 11.9083 27.0579 11.9047C27.0345 11.9013 27.0111 11.8984 26.9875 11.896C26.964 11.8937 26.9405 11.8919 26.9168 11.8908C26.8932 11.8896 26.8696 11.889 26.846 11.889C26.8223 11.889 26.7987 11.8895 26.7751 11.8906C26.7515 11.8918 26.7279 11.8935 26.7044 11.8958C26.6809 11.8981 26.6574 11.901 26.634 11.9044C26.6107 11.9079 26.5873 11.9119 26.5641 11.9165C26.541 11.9211 26.5179 11.9263 26.495 11.932C26.472 11.9377 26.4493 11.944 26.4266 11.9508C26.404 11.9577 26.3816 11.9651 26.3593 11.973C26.337 11.981 26.315 11.9894 26.2931 11.9984C26.2713 12.0075 26.2497 12.017 26.2283 12.0271C26.2069 12.0372 26.1858 12.0478 26.1649 12.0589C26.1441 12.0701 26.1235 12.0817 26.1032 12.0938C26.0829 12.106 26.063 12.1186 26.0433 12.1317C26.0236 12.1448 26.0043 12.1584 25.9853 12.1724C25.9663 12.1865 25.9476 12.201 25.9293 12.216C25.9111 12.231 25.8932 12.2464 25.8756 12.2622C25.8581 12.2781 25.8409 12.2944 25.8242 12.3111L12.3131 25.8244L12.3109 25.8244Z"   fill="url(#linear_fill_IlcfJKXuDQQ65ji4kDpWS)" >
</path>
<defs>
<linearGradient id="linear_fill_IlcfJKXuDQQ65ji4kDpWS" x1="48.79638671875" y1="47.9537467956543" x2="-6.857421875" y2="-5.1849517822265625" gradientUnits="userSpaceOnUse">
<stop offset="0" stop-color="#3C50FF" stop-opacity="0" />
<stop offset="0.6181" stop-color="#3DBBFF" stop-opacity="0.62" />
<stop offset="1" stop-color="#3C50FF"  />
</linearGradient>
</defs>
</svg>
