<svg xmlns="http://www.w3.org/2000/svg" xmlns:xlink="http://www.w3.org/1999/xlink" width="16" height="14.67889404296875" viewBox="0 0 16 14.67889404296875" fill="none">
<path d="M11.7483 5.80365e-05C11.679 0.00017725 11.6098 0.00199015 11.5406 0.00549671C11.4714 0.00900327 11.4024 0.0141993 11.3335 0.0210848C11.2645 0.0279703 11.1958 0.0365372 11.1273 0.046785C11.0588 0.0570331 10.9906 0.0689501 10.9227 0.0825361C10.8548 0.096122 10.7872 0.111361 10.7201 0.128252C10.6529 0.145143 10.5862 0.163667 10.5199 0.183824C10.4536 0.203981 10.3879 0.225745 10.3227 0.249117C10.2575 0.272491 10.1929 0.297445 10.1289 0.323979C10.0649 0.350513 10.0016 0.378596 9.93902 0.408226C9.87641 0.437859 9.81458 0.469003 9.7535 0.501661C9.6924 0.534318 9.63216 0.56845 9.57276 0.604057C9.51334 0.639663 9.45483 0.6767 9.39723 0.715168C9.33963 0.753637 9.28301 0.793493 9.22736 0.834732C9.17171 0.875974 9.11709 0.918549 9.06353 0.962461C9.00996 1.00637 8.95751 1.05157 8.90616 1.09805C8.8548 1.14453 8.80461 1.19224 8.75558 1.24117C8.70656 1.29011 8.65878 1.34021 8.61221 1.39149C8.56564 1.44275 8.52035 1.49513 8.47635 1.54863C8.43234 1.60212 8.38967 1.65665 8.34833 1.71224C8.30699 1.76782 8.26704 1.82437 8.22848 1.8819C8.18991 1.93944 8.15278 1.99788 8.11706 2.05722C8.08136 2.11658 8.04711 2.17677 8.01435 2.23779C7.98159 2.29883 7.95034 2.36062 7.9206 2.42318C7.89086 2.48573 7.86268 2.54897 7.83602 2.61291C7.80938 2.67684 7.78432 2.74139 7.76083 2.80655C7.73734 2.87171 7.71547 2.93741 7.6952 3.00365C7.67493 3.06988 7.65629 3.13657 7.63928 3.20371C7.62227 3.27085 7.60692 3.33837 7.59321 3.40627C7.57952 3.47416 7.56747 3.54236 7.5571 3.61084C7.54674 3.67933 7.53805 3.74803 7.53104 3.81694C7.52405 3.88585 7.51872 3.95488 7.5151 4.02405C7.51148 4.09322 7.50954 4.16245 7.5093 4.23171C7.5093 6.02117 8.66805 8.01599 9.63611 9.36541C9.93487 9.7802 10.2464 10.1852 10.5706 10.5804C10.8948 10.9756 11.2312 11.3602 11.5796 11.7342C11.5824 11.7373 11.5852 11.7402 11.5882 11.7431C11.5911 11.7459 11.5941 11.7487 11.5972 11.7514C11.6003 11.7541 11.6034 11.7567 11.6067 11.7593C11.6099 11.7618 11.6132 11.7642 11.6165 11.7666C11.6199 11.769 11.6233 11.7712 11.6268 11.7734C11.6303 11.7755 11.6338 11.7776 11.6374 11.7796C11.641 11.7816 11.6446 11.7834 11.6483 11.7852C11.652 11.787 11.6558 11.7887 11.6595 11.7903C11.6633 11.7918 11.6672 11.7933 11.671 11.7947C11.6749 11.796 11.6788 11.7973 11.6827 11.7985C11.6866 11.7996 11.6906 11.8007 11.6946 11.8016C11.6986 11.8026 11.7026 11.8034 11.7066 11.8041C11.7107 11.8049 11.7147 11.8055 11.7188 11.806C11.7229 11.8065 11.7269 11.8069 11.731 11.8072C11.7351 11.8075 11.7392 11.8076 11.7433 11.8077C11.7474 11.8078 11.7515 11.8077 11.7556 11.8076C11.7638 11.8077 11.7719 11.8073 11.7801 11.8066C11.7882 11.8059 11.7963 11.8047 11.8043 11.8031C11.8123 11.8016 11.8203 11.7996 11.8281 11.7972C11.8359 11.7949 11.8436 11.7921 11.8511 11.789C11.8587 11.7858 11.8661 11.7823 11.8732 11.7784C11.8804 11.7745 11.8874 11.7703 11.8942 11.7657C11.9009 11.7611 11.9074 11.7562 11.9137 11.7509C11.9199 11.7457 11.9259 11.7401 11.9316 11.7342C12.2784 11.3633 12.6127 10.9815 12.9345 10.5887C13.2563 10.1959 13.5649 9.79303 13.8604 9.38008C14.8286 8.01597 15.9873 6.02117 15.9873 4.24637C15.9877 4.17683 15.9864 4.1073 15.9835 4.03782C15.9805 3.96833 15.9759 3.89896 15.9696 3.8297C15.9632 3.76044 15.955 3.69139 15.9453 3.62253C15.9354 3.55368 15.9239 3.48509 15.9108 3.41681C15.8976 3.34853 15.8827 3.2806 15.8662 3.21306C15.8496 3.14551 15.8313 3.0784 15.8115 3.01175C15.7916 2.9451 15.7701 2.879 15.7469 2.81341C15.7237 2.74782 15.6991 2.68284 15.6727 2.61849C15.6463 2.55413 15.6184 2.49046 15.5889 2.42747C15.5594 2.36449 15.5283 2.30228 15.4956 2.24085C15.463 2.17941 15.4289 2.1188 15.3934 2.05906C15.3579 1.9993 15.3208 1.94045 15.2824 1.88254C15.2437 1.82462 15.2039 1.76768 15.1626 1.71173C15.1212 1.65579 15.0785 1.6009 15.0346 1.54706C14.9904 1.49323 14.9452 1.44052 14.8985 1.38892C14.8518 1.33733 14.8039 1.28692 14.7548 1.2377C14.7057 1.18848 14.6554 1.1405 14.6038 1.09377C14.5523 1.04703 14.4997 1.0016 14.446 0.957476C14.3921 0.913349 14.3374 0.870578 14.2815 0.829161C14.2256 0.787746 14.1688 0.747737 14.1109 0.709134C14.053 0.670533 13.9943 0.633385 13.9346 0.59769C13.8749 0.561997 13.8143 0.527801 13.753 0.495102C13.6916 0.462403 13.6294 0.431242 13.5665 0.401619C13.5036 0.371996 13.4399 0.343947 13.3756 0.317472C13.3113 0.290997 13.2464 0.266127 13.1808 0.242865C13.1153 0.219603 13.0492 0.197976 12.9826 0.177982C12.916 0.15799 12.8489 0.139657 12.7814 0.122982C12.7139 0.106307 12.646 0.0913127 12.5777 0.0779978C12.5094 0.0646828 12.4409 0.0530637 12.372 0.0431407C12.3032 0.0332175 12.2342 0.0250025 12.1649 0.0184957C12.0957 0.0119888 12.0263 0.00719788 11.9568 0.00412306C11.8873 0.00104824 11.8178 -0.000306769 11.7483 5.80365e-05ZM11.7483 6.75455C11.7061 6.75442 11.6639 6.75327 11.6217 6.75108C11.5795 6.74889 11.5374 6.74567 11.4954 6.74141C11.4534 6.73716 11.4116 6.73187 11.3698 6.72557C11.328 6.71925 11.2865 6.71192 11.2451 6.70357C11.2037 6.69522 11.1625 6.68587 11.1216 6.6755C11.0807 6.66512 11.04 6.65375 10.9997 6.64139C10.9593 6.62903 10.9192 6.61568 10.8795 6.60135C10.8398 6.58702 10.8005 6.57173 10.7615 6.55547C10.7225 6.53922 10.684 6.522 10.6459 6.50385C10.6077 6.4857 10.5701 6.46662 10.5329 6.44662C10.4957 6.42663 10.459 6.40573 10.4229 6.38393C10.3867 6.36214 10.3511 6.33947 10.3161 6.31592C10.281 6.29237 10.2466 6.26797 10.2127 6.24275C10.1789 6.21751 10.1456 6.19146 10.1131 6.1646C10.0805 6.13774 10.0486 6.11008 10.0174 6.08165C9.98618 6.05321 9.95568 6.02404 9.92589 5.99411C9.89611 5.96419 9.86707 5.93355 9.8388 5.90219C9.81051 5.87084 9.78302 5.83883 9.7563 5.80612C9.72959 5.77342 9.70371 5.74009 9.67863 5.70611C9.65354 5.67215 9.62932 5.63759 9.60594 5.60242C9.58257 5.56726 9.56006 5.53155 9.53843 5.49528C9.51681 5.45902 9.49608 5.42225 9.47627 5.38497C9.45644 5.34768 9.43755 5.30994 9.41957 5.27174C9.4016 5.23353 9.38458 5.1949 9.36851 5.15585C9.35244 5.11682 9.33733 5.0774 9.32319 5.03762C9.30905 4.99783 9.29589 4.95772 9.28371 4.9173C9.27155 4.87686 9.26038 4.83617 9.25019 4.79519C9.24002 4.75421 9.23087 4.713 9.2227 4.67157C9.21455 4.63015 9.20742 4.58855 9.2013 4.54676C9.1952 4.50498 9.1901 4.46308 9.18605 4.42106C9.18199 4.37903 9.17897 4.33693 9.17698 4.29475C9.17499 4.25256 9.17403 4.21036 9.17412 4.16815C9.1742 4.12592 9.17531 4.08372 9.17745 4.04157C9.1796 3.9994 9.18278 3.9573 9.18701 3.91529C9.19122 3.87327 9.19646 3.83141 9.20274 3.78965C9.20901 3.7479 9.2163 3.70631 9.22461 3.66492C9.23292 3.62352 9.24224 3.58235 9.25257 3.54141C9.26291 3.50048 9.27424 3.45981 9.28656 3.41943C9.29888 3.37905 9.31219 3.33899 9.32648 3.29925C9.34078 3.25953 9.35603 3.22017 9.37225 3.18119C9.38848 3.14222 9.40565 3.10366 9.42376 3.06551C9.44188 3.02737 9.46091 2.98969 9.48088 2.95249C9.50085 2.91528 9.5217 2.87858 9.54346 2.84241C9.56524 2.80623 9.58787 2.77061 9.61137 2.73553C9.63489 2.70046 9.65926 2.66598 9.68445 2.63211C9.70967 2.59823 9.73568 2.565 9.76251 2.5324C9.78935 2.4998 9.81695 2.46787 9.84536 2.43663C9.87376 2.40539 9.90291 2.37486 9.93281 2.34505C9.9627 2.31524 9.99333 2.28618 10.0246 2.25786C10.056 2.22954 10.088 2.20203 10.1206 2.17528C10.1533 2.14854 10.1866 2.12261 10.2206 2.0975C10.2545 2.07239 10.2891 2.04814 10.3242 2.02472C10.3593 2.00132 10.395 1.97879 10.4313 1.95711C10.4675 1.93546 10.5043 1.9147 10.5415 1.89485C10.5788 1.87498 10.6165 1.85606 10.6547 1.83805C10.6929 1.82005 10.7315 1.80299 10.7705 1.78687C10.8096 1.77076 10.849 1.75562 10.8887 1.74144C10.9285 1.72726 10.9686 1.71406 11.009 1.70184C11.0494 1.68964 11.0901 1.67842 11.1311 1.66821C11.1721 1.658 11.2133 1.64879 11.2547 1.64059C11.2961 1.6324 11.3377 1.62522 11.3795 1.61908C11.4212 1.61293 11.4631 1.60781 11.5052 1.60371C11.5472 1.59961 11.5893 1.59655 11.6315 1.59451C11.6736 1.59249 11.7158 1.59149 11.7581 1.59153C11.8003 1.59158 11.8425 1.59265 11.8846 1.59476C11.9268 1.59686 11.9689 1.60001 12.0109 1.60418C12.0529 1.60837 12.0948 1.61356 12.1366 1.6198C12.1783 1.62603 12.2199 1.63329 12.2613 1.64155C12.3028 1.64982 12.3439 1.6591 12.3849 1.6694C12.4258 1.6797 12.4665 1.69099 12.5069 1.70326C12.5473 1.71555 12.5874 1.72883 12.6271 1.74308C12.6669 1.75734 12.7062 1.77256 12.7452 1.78873C12.7842 1.80492 12.8228 1.82205 12.8609 1.84014C12.8991 1.85822 12.9368 1.87723 12.974 1.89715C13.0113 1.91708 13.048 1.93791 13.0842 1.95963C13.1204 1.98136 13.156 2.00397 13.1911 2.02744C13.2262 2.05092 13.2607 2.07524 13.2946 2.10041C13.3285 2.12558 13.3618 2.15158 13.3944 2.17838C13.427 2.20518 13.459 2.23277 13.4902 2.26114C13.5215 2.28952 13.5521 2.31864 13.5819 2.34851C13.6117 2.37837 13.6408 2.40895 13.6692 2.44025C13.6975 2.47155 13.7251 2.50353 13.7518 2.53618C13.7786 2.56882 13.8046 2.60211 13.8297 2.63603C13.8549 2.66997 13.8791 2.70449 13.9026 2.7396C13.926 2.7747 13.9486 2.81037 13.9703 2.8466C13.992 2.88282 14.0128 2.91955 14.0327 2.95679C14.0526 2.99405 14.0715 3.03175 14.0896 3.06992C14.1076 3.1081 14.1247 3.1467 14.1409 3.1857C14.157 3.22471 14.1722 3.2641 14.1864 3.30386C14.2006 3.34361 14.2139 3.38369 14.2261 3.4241C14.2384 3.46451 14.2496 3.5052 14.2599 3.54616C14.2701 3.58711 14.2794 3.6283 14.2876 3.66972C14.2958 3.71113 14.303 3.75271 14.3092 3.79448C14.3154 3.83625 14.3206 3.87814 14.3248 3.92016C14.3288 3.96217 14.332 4.00427 14.3341 4.04644C14.3361 4.08862 14.3371 4.13082 14.3371 4.17304C14.3371 4.21536 14.3361 4.25766 14.3341 4.29993C14.332 4.3422 14.3288 4.3844 14.3247 4.42653C14.3205 4.46866 14.3153 4.51064 14.3091 4.55251C14.3029 4.59438 14.2956 4.63606 14.2874 4.67757C14.2791 4.71907 14.2698 4.76035 14.2595 4.8014C14.2492 4.84246 14.2379 4.88324 14.2256 4.92373C14.2133 4.96423 14.2 5.0044 14.1857 5.04424C14.1714 5.08407 14.1562 5.12355 14.1399 5.16264C14.1237 5.20173 14.1065 5.24039 14.0884 5.27865C14.0703 5.3169 14.0512 5.35467 14.0312 5.39199C14.0113 5.4293 13.9904 5.46608 13.9686 5.50237C13.9468 5.53865 13.9241 5.57437 13.9005 5.60954C13.877 5.64471 13.8526 5.67928 13.8273 5.71325C13.8021 5.74721 13.776 5.78054 13.7491 5.81321C13.7222 5.8459 13.6946 5.8779 13.6661 5.90923C13.6376 5.94056 13.6084 5.97115 13.5784 6.00105C13.5485 6.03094 13.5178 6.06006 13.4864 6.08844C13.455 6.11681 13.4229 6.1444 13.3901 6.1712C13.3574 6.198 13.324 6.22397 13.2899 6.24912C13.2559 6.27429 13.2212 6.2986 13.186 6.32205C13.1508 6.3455 13.115 6.36806 13.0786 6.38976C13.0423 6.41146 13.0055 6.43224 12.9681 6.45211C12.9307 6.47199 12.8929 6.49094 12.8546 6.50896C12.8163 6.52698 12.7776 6.54404 12.7384 6.56016C12.6993 6.57627 12.6598 6.59141 12.6199 6.60558C12.58 6.61975 12.5398 6.63294 12.4993 6.64513C12.4588 6.65732 12.4179 6.6685 12.3769 6.67869C12.3358 6.68887 12.2945 6.69806 12.2529 6.70621C12.2114 6.71436 12.1697 6.72149 12.1278 6.72759C12.0859 6.73369 12.0439 6.73876 12.0018 6.74279C11.9597 6.74683 11.9174 6.74982 11.8752 6.75179C11.8329 6.75375 11.7906 6.75468 11.7483 6.75455ZM7.61931 10.5755L1.23884 9.84211L2.16292 6.73255C2.1645 6.72698 2.16617 6.72145 2.16796 6.71595C2.16975 6.71045 2.17166 6.70499 2.17367 6.69957C2.17567 6.69415 2.17779 6.68877 2.18001 6.68343C2.18225 6.67809 2.18457 6.6728 2.187 6.66756C2.18944 6.6623 2.19197 6.65712 2.19462 6.65198C2.19727 6.64683 2.20002 6.64173 2.20286 6.63671C2.20571 6.63168 2.20866 6.62671 2.21171 6.62179C2.21476 6.61688 2.2179 6.61203 2.22114 6.60724C2.22439 6.60244 2.22772 6.59773 2.23115 6.59307C2.23459 6.58842 2.23811 6.58384 2.24172 6.57932C2.24534 6.57481 2.24905 6.57037 2.25283 6.566C2.25663 6.56163 2.26051 6.55735 2.26447 6.55314C2.26845 6.54894 2.27249 6.54482 2.27661 6.54076C2.28075 6.53671 2.28496 6.53276 2.28925 6.52887C2.29354 6.52499 2.2979 6.52121 2.30234 6.5175C2.30679 6.51379 2.31131 6.51018 2.31589 6.50666C2.32047 6.50315 2.32513 6.49971 2.32985 6.49637C2.33458 6.49303 2.33938 6.4898 2.34422 6.48666C2.34908 6.48352 2.35399 6.48047 2.35896 6.47752C2.36395 6.47459 2.36897 6.47174 2.37406 6.46898C2.37914 6.46625 2.3843 6.4636 2.38949 6.46106C2.39469 6.45853 2.39993 6.45609 2.40523 6.45376C2.41053 6.45144 2.41586 6.44922 2.42124 6.4471C2.42663 6.44499 2.43204 6.44299 2.4375 6.44108C2.44297 6.43919 2.44847 6.4374 2.454 6.43572C2.45955 6.43405 2.46512 6.43249 2.4707 6.43103C2.4763 6.42958 2.48193 6.42823 2.48758 6.42702C2.49322 6.42578 2.49889 6.42467 2.50459 6.42366C2.51028 6.42268 2.516 6.42179 2.52173 6.42101C2.52747 6.42024 2.53321 6.41958 2.53897 6.41905C2.54473 6.41851 2.55049 6.41808 2.55626 6.41778C2.56205 6.41746 2.56782 6.41726 2.57359 6.41719L7.34795 6.41719C7.4029 6.56912 7.46127 6.71973 7.52308 6.869C7.5849 7.01827 7.65008 7.16605 7.71863 7.31234C7.78719 7.45864 7.85904 7.60328 7.9342 7.74631C8.00937 7.88932 8.08774 8.03054 8.16934 8.16998L7.61931 10.5755ZM6.78324 14.6677L0.439456 14.6677C0.431311 14.6677 0.423176 14.6674 0.415049 14.667C0.40692 14.6666 0.398813 14.6657 0.390728 14.6647C0.382642 14.6637 0.374591 14.6626 0.366575 14.6611C0.358558 14.6597 0.350588 14.6581 0.342666 14.6563C0.334745 14.6544 0.326884 14.6522 0.319085 14.6498C0.311284 14.6475 0.303556 14.6449 0.295904 14.6422C0.288251 14.6395 0.280683 14.6365 0.273203 14.6332C0.265723 14.6299 0.258341 14.6265 0.251057 14.6229C0.243773 14.6193 0.236599 14.6154 0.229538 14.6113C0.222474 14.6073 0.215534 14.603 0.208716 14.5985C0.201897 14.5941 0.195211 14.5895 0.188661 14.5846C0.182109 14.5798 0.175701 14.5748 0.169438 14.5696C0.163174 14.5643 0.157065 14.559 0.15111 14.5534C0.145156 14.5478 0.139366 14.5421 0.13374 14.5362C0.128114 14.5303 0.122662 14.5243 0.117384 14.5182C0.112105 14.512 0.107009 14.5056 0.102095 14.4991C0.0965364 14.4927 0.0911787 14.4861 0.0860213 14.4794C0.0808637 14.4726 0.0759162 14.4657 0.0711785 14.4587C0.0664408 14.4517 0.0619219 14.4444 0.0576216 14.4371C0.0533214 14.4298 0.0492478 14.4225 0.0454009 14.4149C0.0415539 14.4073 0.0379408 14.3996 0.0345613 14.3918C0.031182 14.384 0.0280427 14.3761 0.0251433 14.3682C0.022244 14.3602 0.0195902 14.3522 0.0171817 14.344C0.0147733 14.3358 0.0126148 14.3277 0.0107061 14.3194C0.00879748 14.3111 0.00714226 14.3028 0.00574045 14.2944C0.00433865 14.286 0.00319288 14.2776 0.00230313 14.2692C0.00141338 14.2608 0.00078131 14.2523 0.00040691 14.2438C3.25079e-05 14.2353 -8.35256e-05 14.2269 5.8809e-05 14.2184C0.000201143 14.2099 0.000601581 14.2014 0.00126013 14.1929C0.00191867 14.1845 0.00283409 14.176 0.00400639 14.1676C0.0051787 14.1592 0.00660572 14.1509 0.00828746 14.1425C0.00996919 14.1342 0.0119025 14.126 0.0140874 14.1178L0.879492 11.1182L7.35529 11.8516L6.78324 14.6677ZM14.6232 9.43141L15.1953 11.4116L13.2811 11.1989C13.6184 10.8029 14.0144 10.3041 14.3885 9.76877C14.4619 9.64409 14.5498 9.53408 14.6232 9.43141ZM15.5839 12.7317L15.9799 14.0957C15.9837 14.12 15.9857 14.1445 15.9857 14.1691C15.9857 14.1937 15.9837 14.2181 15.9799 14.2424C15.9799 14.2494 15.9799 14.2564 15.9798 14.2634C15.9795 14.2704 15.9792 14.2774 15.9787 14.2843C15.9779 14.2913 15.9772 14.2983 15.9764 14.3052C15.9754 14.3121 15.9742 14.3191 15.9731 14.3259C15.9716 14.3328 15.9702 14.3397 15.9686 14.3464C15.9671 14.3532 15.9653 14.36 15.9633 14.3668C15.9613 14.3735 15.9593 14.3801 15.957 14.3867C15.9547 14.3934 15.9522 14.3999 15.9496 14.4063C15.947 14.4127 15.9441 14.4192 15.9413 14.4256C15.9383 14.4319 15.9351 14.4382 15.932 14.4444C15.9287 14.4506 15.9252 14.4567 15.9218 14.4627C15.9181 14.4688 15.9143 14.4746 15.9106 14.4805C15.9066 14.4864 15.9026 14.4921 15.8986 14.4977C15.8943 14.5033 15.89 14.5089 15.8857 14.5143C15.8813 14.5197 15.8767 14.525 15.8721 14.5302C15.8672 14.5354 15.8625 14.5404 15.8576 14.5454C15.8526 14.5504 15.8476 14.5551 15.8424 14.5599C15.8371 14.5646 15.8318 14.5692 15.8265 14.5736C15.8211 14.578 15.8155 14.5822 15.8099 14.5864C15.8042 14.5905 15.7985 14.5945 15.7927 14.5984C15.7869 14.6023 15.781 14.606 15.775 14.6096C15.769 14.6131 15.7628 14.6164 15.7566 14.6197C15.7503 14.623 15.744 14.6262 15.7377 14.629C15.7314 14.6321 15.725 14.6348 15.7185 14.6375C15.7119 14.6401 15.7055 14.6425 15.6989 14.6448C15.6923 14.6471 15.6856 14.6492 15.6789 14.6512C15.6721 14.6531 15.6654 14.655 15.6587 14.6565C15.6518 14.6581 15.6449 14.6596 15.638 14.6608C15.6312 14.6621 15.6243 14.6633 15.6174 14.6641C15.6104 14.6651 15.6034 14.6659 15.5965 14.6664C15.5895 14.667 15.5825 14.6674 15.5756 14.6676C15.5686 14.6679 15.5615 14.6679 15.5545 14.6677L8.08133 14.6677L8.64604 11.9763L15.5839 12.7317Z"   fill="#FFFFFF" >
</path>
</svg>
