<svg xmlns="http://www.w3.org/2000/svg" xmlns:xlink="http://www.w3.org/1999/xlink" width="32" height="32" viewBox="0 0 32 32" fill="none">
<path d="M16.135 2.05992C10.2335 2.08634 5.45353 6.90903 5.47972 12.8112C5.50431 18.3492 14.3226 28.3298 15.3283 29.4493C15.3429 29.4655 15.3579 29.4814 15.3733 29.4969C15.3887 29.5124 15.4046 29.5275 15.4208 29.5422C15.437 29.5568 15.4536 29.571 15.4706 29.5848C15.4876 29.5986 15.5049 29.6119 15.5225 29.6248C15.5402 29.6377 15.5582 29.65 15.5765 29.662C15.5949 29.6739 15.6135 29.6853 15.6324 29.6963C15.6514 29.7072 15.6706 29.7176 15.6901 29.7275C15.7096 29.7374 15.7293 29.7468 15.7492 29.7557C15.7692 29.7646 15.7895 29.7729 15.8099 29.7808C15.8303 29.7886 15.8509 29.7958 15.8717 29.8026C15.8925 29.8093 15.9135 29.8154 15.9346 29.8211C15.9557 29.8267 15.977 29.8317 15.9984 29.8362C16.0198 29.8407 16.0413 29.8447 16.0629 29.848C16.0845 29.8513 16.1062 29.8541 16.1279 29.8563C16.1497 29.8585 16.1715 29.8602 16.1933 29.8612C16.2152 29.8623 16.237 29.8628 16.2589 29.8627C16.2807 29.8626 16.3026 29.8619 16.3244 29.8607C16.3462 29.8594 16.368 29.8576 16.3897 29.8552C16.4115 29.8528 16.4331 29.8498 16.4547 29.8463C16.4763 29.8427 16.4977 29.8386 16.5191 29.8339C16.5405 29.8293 16.5617 29.824 16.5828 29.8182C16.6039 29.8124 16.6248 29.8061 16.6455 29.7992C16.6662 29.7923 16.6868 29.7848 16.7071 29.7768C16.7275 29.7688 16.7476 29.7603 16.7675 29.7513C16.7875 29.7422 16.8071 29.7327 16.8265 29.7226C16.8459 29.7125 16.865 29.7019 16.8838 29.6908C16.9027 29.6797 16.9212 29.6681 16.9394 29.656C16.9577 29.6439 16.9756 29.6314 16.9931 29.6184C17.0107 29.6053 17.0279 29.5919 17.0447 29.5779C17.0616 29.564 17.0781 29.5496 17.0941 29.5348C17.1102 29.52 17.1259 29.5048 17.1412 29.4892C17.1565 29.4736 17.1714 29.4575 17.1858 29.4411C18.1815 28.3127 26.9109 18.2539 26.8863 12.7157C26.8601 6.81375 22.0369 2.03373 16.135 2.05992ZM16.2036 17.4618C13.8135 17.4724 11.8596 15.5364 11.849 13.146C11.8384 10.7557 13.7749 8.80222 16.1648 8.79181C18.5558 8.781 20.5093 10.7171 20.5199 13.1072C20.5305 15.4978 18.5944 17.451 16.2036 17.4618Z"   fill="#F34234" >
</path>
</svg>