<?xml version="1.0" standalone="no"?><!DOCTYPE svg PUBLIC "-//W3C//DTD SVG 1.1//EN" "http://www.w3.org/Graphics/SVG/1.1/DTD/svg11.dtd"><svg t="1709086589453" class="icon" viewBox="0 0 1024 1024" version="1.1" xmlns="http://www.w3.org/2000/svg" p-id="12874" xmlns:xlink="http://www.w3.org/1999/xlink" width="16" height="16"><path d="M951.941266 475.970633a475.970633 475.970633 0 1 0-475.970633 475.970633 475.970633 475.970633 0 0 0 475.970633-475.970633z m-832.434409 0a356.463776 356.463776 0 1 1 356.463776 356.463776 356.463776 356.463776 0 0 1-356.463776-356.463776z m609.945976 253.553124a57.732096 57.732096 0 0 0 0 81.491619L925.770328 1007.1201A57.590248 57.590248 0 0 0 1007.1201 925.62848l-196.175648-196.033799-42.55437 42.19975 196.104723 196.104724a2.127719 2.127719 0 0 1 0-3.04973 2.198642 2.198642 0 0 1 2.978806 0l-195.608256-196.0338a2.056795 2.056795 0 0 1 0 2.978806 2.198642 2.198642 0 0 1-2.978806 0l42.554371-42.19975a57.519324 57.519324 0 0 0-81.420696 0z" fill="#fff" p-id="12875"></path></svg>