<svg xmlns="http://www.w3.org/2000/svg" xmlns:xlink="http://www.w3.org/1999/xlink" width="16" height="16" viewBox="0 0 16 16" fill="none">
<g  clip-path="url(#clip-path-0_1199)">
<path d="M2.47112 0.76001C2.48057 0.76001 2.49003 0.760242 2.49946 0.760705C2.50892 0.761169 2.51834 0.761864 2.52774 0.762791C2.53717 0.763718 2.54654 0.764875 2.55588 0.766263C2.56524 0.76765 2.57456 0.769267 2.58384 0.771111C2.59312 0.772956 2.60234 0.775027 2.61151 0.777324C2.62068 0.779622 2.62979 0.782143 2.63884 0.784888C2.64788 0.787633 2.65685 0.790598 2.66576 0.793783C2.67467 0.796969 2.68349 0.800371 2.69221 0.803989C2.70096 0.807608 2.7096 0.811439 2.71815 0.815482C2.7267 0.819524 2.73513 0.823774 2.74348 0.828232C2.75182 0.83269 2.76004 0.837349 2.76815 0.84221C2.77628 0.847071 2.78426 0.852129 2.7921 0.857382C2.79998 0.862636 2.8077 0.868079 2.81529 0.873711C2.82288 0.879345 2.83034 0.88516 2.83765 0.891158C2.84496 0.897157 2.85212 0.903332 2.85912 0.909682C2.86613 0.916032 2.87298 0.92255 2.87967 0.929236C2.88635 0.935922 2.89287 0.942769 2.89921 0.949775C2.90557 0.956782 2.91174 0.963939 2.91774 0.971249C2.92374 0.978558 2.92957 0.98601 2.9352 0.993605C2.94082 1.0012 2.94628 1.00893 2.95153 1.01679C2.95678 1.02465 2.96184 1.03264 2.9667 1.04075C2.97156 1.04886 2.97621 1.05708 2.98067 1.06542C2.98513 1.07376 2.98938 1.08221 2.99342 1.09076C2.99746 1.0993 3.00129 1.10794 3.00492 1.11668C3.00854 1.12542 3.01193 1.13424 3.01512 1.14314C3.01831 1.15204 3.02128 1.16102 3.02401 1.17007C3.02676 1.17911 3.02929 1.18823 3.03157 1.1974C3.03388 1.20657 3.03595 1.21579 3.03779 1.22507C3.03963 1.23434 3.04126 1.24366 3.04263 1.25301C3.04403 1.26236 3.04518 1.27174 3.0461 1.28116C3.04704 1.29057 3.04773 1.29999 3.0482 1.30944C3.04867 1.31888 3.04888 1.32833 3.04888 1.33779L3.04888 11.96L13.6711 11.96C13.6806 11.96 13.69 11.9602 13.6995 11.9607C13.7089 11.9612 13.7183 11.9619 13.7277 11.9628C13.7372 11.9637 13.7465 11.9649 13.7559 11.9663C13.7652 11.9677 13.7746 11.9693 13.7838 11.9711C13.7931 11.9729 13.8023 11.975 13.8115 11.9773C13.8207 11.9796 13.8298 11.9821 13.8388 11.9849C13.8479 11.9876 13.8569 11.9906 13.8658 11.9938C13.8747 11.997 13.8835 12.0004 13.8922 12.004C13.901 12.0076 13.9096 12.0114 13.9181 12.0155C13.9267 12.0195 13.9351 12.0238 13.9435 12.0282C13.9518 12.0327 13.96 12.0374 13.9682 12.0422C13.9763 12.0471 13.9843 12.0521 13.9921 12.0574C14 12.0626 14.0077 12.0681 14.0153 12.0737C14.0229 12.0793 14.0303 12.0852 14.0377 12.0912C14.045 12.0972 14.0521 12.1033 14.0591 12.1097C14.0661 12.116 14.073 12.1225 14.0797 12.1292C14.0864 12.1359 14.0929 12.1428 14.0992 12.1498C14.1056 12.1568 14.1117 12.1639 14.1177 12.1712C14.1237 12.1786 14.1296 12.186 14.1352 12.1936C14.1408 12.2012 14.1463 12.2089 14.1515 12.2168C14.1568 12.2247 14.1618 12.2326 14.1667 12.2407C14.1716 12.2489 14.1762 12.2571 14.1807 12.2654C14.1851 12.2738 14.1894 12.2822 14.1934 12.2907C14.1975 12.2993 14.2013 12.3079 14.2049 12.3167C14.2085 12.3254 14.2119 12.3342 14.2151 12.3431C14.2183 12.352 14.2213 12.361 14.224 12.3701C14.2268 12.3791 14.2293 12.3882 14.2316 12.3974C14.2339 12.4066 14.2359 12.4158 14.2378 12.4251C14.2396 12.4343 14.2413 12.4437 14.2426 12.453C14.244 12.4624 14.2452 12.4717 14.2461 12.4812C14.247 12.4906 14.2477 12.5 14.2482 12.5094C14.2487 12.5189 14.2489 12.5283 14.2489 12.5378C14.2489 12.5472 14.2487 12.5567 14.2482 12.5661C14.2477 12.5756 14.247 12.585 14.2461 12.5944C14.2452 12.6038 14.244 12.6132 14.2426 12.6226C14.2413 12.6319 14.2396 12.6412 14.2378 12.6505C14.2359 12.6598 14.2339 12.669 14.2316 12.6782C14.2293 12.6874 14.2268 12.6965 14.224 12.7055C14.2213 12.7146 14.2183 12.7235 14.2151 12.7324C14.2119 12.7413 14.2085 12.7502 14.2049 12.7589C14.2013 12.7676 14.1975 12.7763 14.1934 12.7848C14.1894 12.7934 14.1851 12.8018 14.1807 12.8102C14.1762 12.8185 14.1716 12.8267 14.1667 12.8348C14.1618 12.8429 14.1568 12.8509 14.1515 12.8588C14.1463 12.8667 14.1408 12.8744 14.1352 12.882C14.1296 12.8896 14.1237 12.897 14.1177 12.9043C14.1117 12.9116 14.1056 12.9188 14.0992 12.9258C14.0929 12.9328 14.0864 12.9397 14.0797 12.9463C14.073 12.953 14.0661 12.9595 14.0591 12.9659C14.0521 12.9722 14.045 12.9784 14.0377 12.9844C14.0303 12.9904 14.0229 12.9962 14.0153 13.0019C14.0077 13.0075 14 13.0129 13.9921 13.0182C13.9843 13.0234 13.9763 13.0285 13.9682 13.0334C13.96 13.0382 13.9518 13.0429 13.9435 13.0473C13.9351 13.0518 13.9267 13.0561 13.9181 13.0601C13.9096 13.0641 13.901 13.068 13.8922 13.0716C13.8835 13.0752 13.8747 13.0786 13.8658 13.0818C13.8569 13.085 13.8479 13.0879 13.8388 13.0907C13.8298 13.0934 13.8207 13.0959 13.8115 13.0982C13.8023 13.1005 13.7931 13.1026 13.7838 13.1045C13.7746 13.1063 13.7652 13.1079 13.7559 13.1093C13.7465 13.1107 13.7372 13.1119 13.7277 13.1128C13.7183 13.1137 13.7089 13.1144 13.6995 13.1149C13.69 13.1153 13.6806 13.1156 13.6711 13.1156L12.1156 13.1156L12.1156 14.6711C12.1156 14.6806 12.1153 14.69 12.1149 14.6995C12.1144 14.7089 12.1137 14.7183 12.1128 14.7277C12.1119 14.7372 12.1107 14.7465 12.1093 14.7559C12.1079 14.7652 12.1063 14.7746 12.1045 14.7838C12.1026 14.7931 12.1005 14.8023 12.0982 14.8115C12.0959 14.8207 12.0934 14.8298 12.0907 14.8388C12.0879 14.8479 12.085 14.8569 12.0818 14.8658C12.0786 14.8747 12.0752 14.8835 12.0716 14.8922C12.068 14.901 12.0641 14.9096 12.0601 14.9181C12.0561 14.9267 12.0518 14.9351 12.0473 14.9435C12.0429 14.9518 12.0382 14.96 12.0334 14.9682C12.0285 14.9763 12.0234 14.9843 12.0182 14.9921C12.0129 15 12.0075 15.0077 12.0019 15.0153C11.9962 15.0229 11.9904 15.0303 11.9844 15.0377C11.9784 15.045 11.9722 15.0521 11.9659 15.0591C11.9595 15.0661 11.953 15.073 11.9463 15.0797C11.9397 15.0864 11.9328 15.0929 11.9258 15.0992C11.9188 15.1056 11.9116 15.1117 11.9043 15.1177C11.897 15.1237 11.8896 15.1296 11.882 15.1352C11.8744 15.1408 11.8667 15.1463 11.8588 15.1515C11.8509 15.1568 11.8429 15.1618 11.8348 15.1667C11.8267 15.1716 11.8185 15.1762 11.8102 15.1807C11.8018 15.1851 11.7934 15.1894 11.7848 15.1934C11.7763 15.1975 11.7676 15.2013 11.7589 15.2049C11.7502 15.2085 11.7413 15.2119 11.7324 15.2151C11.7235 15.2183 11.7146 15.2213 11.7055 15.224C11.6965 15.2268 11.6874 15.2293 11.6782 15.2316C11.669 15.2339 11.6598 15.2359 11.6505 15.2378C11.6412 15.2396 11.6319 15.2413 11.6226 15.2426C11.6132 15.244 11.6038 15.2452 11.5944 15.2461C11.585 15.247 11.5756 15.2477 11.5661 15.2482C11.5567 15.2487 11.5472 15.2489 11.5378 15.2489C11.5283 15.2489 11.5189 15.2487 11.5094 15.2482C11.5 15.2477 11.4906 15.247 11.4812 15.2461C11.4717 15.2452 11.4624 15.244 11.453 15.2426C11.4437 15.2413 11.4343 15.2396 11.4251 15.2378C11.4158 15.2359 11.4066 15.2339 11.3974 15.2316C11.3882 15.2293 11.3791 15.2268 11.3701 15.224C11.361 15.2213 11.352 15.2183 11.3431 15.2151C11.3342 15.2119 11.3254 15.2085 11.3167 15.2049C11.3079 15.2013 11.2993 15.1975 11.2907 15.1934C11.2822 15.1894 11.2738 15.1851 11.2654 15.1807C11.2571 15.1762 11.2489 15.1716 11.2407 15.1667C11.2326 15.1618 11.2247 15.1568 11.2168 15.1515C11.2089 15.1463 11.2012 15.1408 11.1936 15.1352C11.186 15.1296 11.1786 15.1237 11.1712 15.1177C11.1639 15.1117 11.1568 15.1056 11.1498 15.0992C11.1428 15.0929 11.1359 15.0864 11.1292 15.0797C11.1225 15.073 11.116 15.0661 11.1097 15.0591C11.1033 15.0521 11.0972 15.045 11.0912 15.0377C11.0852 15.0303 11.0793 15.0229 11.0737 15.0153C11.0681 15.0077 11.0626 15 11.0574 14.9921C11.0521 14.9843 11.0471 14.9763 11.0422 14.9682C11.0374 14.96 11.0327 14.9518 11.0282 14.9435C11.0238 14.9351 11.0195 14.9267 11.0155 14.9181C11.0114 14.9096 11.0076 14.901 11.004 14.8922C11.0004 14.8835 10.997 14.8747 10.9938 14.8658C10.9906 14.8569 10.9876 14.8479 10.9849 14.8388C10.9821 14.8298 10.9796 14.8207 10.9773 14.8115C10.975 14.8023 10.9729 14.7931 10.9711 14.7838C10.9693 14.7746 10.9677 14.7652 10.9663 14.7559C10.9649 14.7465 10.9637 14.7372 10.9628 14.7277C10.9619 14.7183 10.9612 14.7089 10.9607 14.6995C10.9602 14.69 10.96 14.6806 10.96 14.6711L10.96 13.1156L2.56001 13.1156C2.5491 13.1156 2.5382 13.1153 2.52729 13.1148C2.5164 13.1142 2.50553 13.1134 2.49467 13.1124C2.48381 13.1113 2.47298 13.1099 2.46218 13.1083C2.4514 13.1067 2.44065 13.1049 2.42995 13.1027C2.41924 13.1006 2.4086 13.0982 2.39801 13.0956C2.38743 13.0929 2.37692 13.09 2.36648 13.0869C2.35604 13.0837 2.3457 13.0803 2.33542 13.0766C2.32513 13.0729 2.31496 13.069 2.30488 13.0648C2.29481 13.0607 2.28484 13.0562 2.27496 13.0516C2.2651 13.0469 2.25537 13.042 2.24574 13.0368C2.23612 13.0317 2.22663 13.0263 2.21726 13.0207C2.20792 13.0151 2.1987 13.0093 2.18962 13.0032C2.18056 12.9972 2.17163 12.9909 2.16287 12.9844C2.15412 12.9779 2.14551 12.9712 2.13707 12.9642C2.12863 12.9573 2.12038 12.9502 2.11229 12.9429C2.10421 12.9355 2.09632 12.928 2.0886 12.9203C2.08088 12.9126 2.07337 12.9047 2.06604 12.8966C2.05871 12.8885 2.05159 12.8803 2.04467 12.8718C2.03774 12.8634 2.03103 12.8548 2.02453 12.846C2.01803 12.8373 2.01176 12.8284 2.0057 12.8193C1.99963 12.8102 1.99381 12.801 1.98818 12.7916C1.98259 12.7823 1.97721 12.7728 1.97206 12.7632C1.96692 12.7535 1.96201 12.7438 1.95734 12.7339C1.95268 12.7241 1.94828 12.7141 1.94409 12.704C1.93992 12.6939 1.93599 12.6838 1.93231 12.6735C1.92863 12.6632 1.92521 12.6529 1.92204 12.6424C1.91888 12.632 1.91598 12.6215 1.91332 12.6109C1.91067 12.6003 1.90828 12.5897 1.90615 12.5789C1.90403 12.5683 1.90215 12.5575 1.90056 12.5467C1.89896 12.5359 1.89762 12.5251 1.89654 12.5142C1.89548 12.5034 1.89468 12.4925 1.89413 12.4816C1.8936 12.4707 1.89334 12.4598 1.89334 12.4489L1.89334 4.04888L0.337786 4.04888C0.328332 4.04888 0.318882 4.04867 0.309436 4.0482C0.299993 4.04773 0.290566 4.04704 0.281155 4.0461C0.271744 4.04518 0.262363 4.04403 0.25301 4.04263C0.243655 4.04126 0.234341 4.03963 0.225068 4.03779C0.215794 4.03595 0.206571 4.03389 0.197399 4.03157C0.188225 4.02929 0.179116 4.02676 0.170068 4.02401C0.161019 4.02128 0.152043 4.01831 0.143139 4.01512C0.134236 4.01193 0.125416 4.00854 0.11668 4.00492C0.107944 4.00129 0.0993035 3.99746 0.0907551 3.99342C0.0822066 3.98938 0.0737629 3.98513 0.0654238 3.98067C0.0570848 3.97621 0.0488613 3.97156 0.0407504 3.9667C0.0326394 3.96184 0.0246519 3.95678 0.016791 3.95153C0.00892852 3.94628 0.00120039 3.94082 -0.00639492 3.93518C-0.0139902 3.92956 -0.0214418 3.92374 -0.0287512 3.91774C-0.0360605 3.91174 -0.0432184 3.90557 -0.0502246 3.89921C-0.0572309 3.89287 -0.0640777 3.88635 -0.0707637 3.87967C-0.0774496 3.87298 -0.0839684 3.86613 -0.0903184 3.85912C-0.0966684 3.85212 -0.102843 3.84496 -0.108842 3.83765C-0.114841 3.83034 -0.120656 3.82288 -0.126289 3.81529C-0.131921 3.8077 -0.137364 3.79998 -0.142618 3.7921C-0.147871 3.78426 -0.152929 3.77628 -0.15779 3.76815C-0.162651 3.76004 -0.16731 3.75182 -0.171768 3.74348C-0.176226 3.73513 -0.180476 3.7267 -0.184518 3.71815C-0.188561 3.7096 -0.192392 3.70096 -0.196011 3.69221C-0.199629 3.68349 -0.203031 3.67467 -0.206217 3.66576C-0.209402 3.65685 -0.212367 3.64788 -0.215112 3.63884C-0.217857 3.62979 -0.220378 3.62068 -0.222676 3.61151C-0.224973 3.60234 -0.227044 3.59312 -0.228889 3.58384C-0.230733 3.57456 -0.23235 3.56524 -0.233737 3.55588C-0.235125 3.54654 -0.236282 3.53717 -0.237209 3.52774C-0.238136 3.51834 -0.238831 3.50892 -0.239295 3.49946C-0.239758 3.49003 -0.23999 3.48057 -0.23999 3.47112C-0.23999 3.46167 -0.239758 3.45221 -0.239295 3.44276C-0.238831 3.43332 -0.238136 3.4239 -0.237209 3.41448C-0.236282 3.40507 -0.235125 3.3957 -0.233737 3.38634C-0.23235 3.37699 -0.230733 3.36768 -0.228889 3.3584C-0.227044 3.34912 -0.224973 3.3399 -0.222676 3.33073C-0.220378 3.32156 -0.217857 3.31245 -0.215112 3.3034C-0.212367 3.29435 -0.209402 3.28537 -0.206217 3.27646C-0.203031 3.26757 -0.199629 3.25876 -0.196011 3.25001C-0.192392 3.24128 -0.188561 3.23263 -0.184518 3.22409C-0.180476 3.21554 -0.176226 3.20709 -0.171768 3.19874C-0.167311 3.19042 -0.162652 3.1822 -0.15779 3.17407C-0.152929 3.16598 -0.147871 3.15799 -0.142618 3.15012C-0.137365 3.14226 -0.131922 3.13453 -0.126289 3.12693C-0.120656 3.11934 -0.114841 3.11188 -0.108842 3.10457C-0.102843 3.09728 -0.0966684 3.09012 -0.0903184 3.0831C-0.0839684 3.0761 -0.0774496 3.06924 -0.0707637 3.06256C-0.0640777 3.05588 -0.0572309 3.04937 -0.0502246 3.04301C-0.0432184 3.03667 -0.0360605 3.03048 -0.0287512 3.02448C-0.0214418 3.01849 -0.0139902 3.01268 -0.00639492 3.00704C0.00120039 3.00142 0.00892852 2.99596 0.016791 2.99071C0.0246519 2.98546 0.0326394 2.9804 0.0407504 2.97554C0.0488613 2.97068 0.0570848 2.96603 0.0654238 2.96156C0.0737629 2.9571 0.0822066 2.95285 0.0907551 2.94881C0.0993035 2.94478 0.107944 2.94095 0.11668 2.93732C0.125416 2.9337 0.134236 2.93029 0.143139 2.9271C0.152043 2.92393 0.161019 2.92096 0.170068 2.91821C0.179116 2.91548 0.188225 2.91296 0.197399 2.91065C0.206571 2.90835 0.215794 2.90628 0.225068 2.90443C0.234341 2.90259 0.243655 2.90098 0.25301 2.89959C0.262363 2.89821 0.271744 2.89706 0.281155 2.89612C0.290566 2.8952 0.299993 2.89449 0.309436 2.89403C0.318882 2.89357 0.328332 2.89334 0.337786 2.89334L1.89334 2.89334L1.89334 1.33779C1.89334 1.32833 1.89357 1.31888 1.89403 1.30944C1.89449 1.29999 1.8952 1.29057 1.89612 1.28116C1.89706 1.27174 1.89821 1.26236 1.89959 1.25301C1.90098 1.24366 1.90259 1.23434 1.90443 1.22507C1.90628 1.21579 1.90835 1.20657 1.91065 1.1974C1.91296 1.18823 1.91548 1.17912 1.91821 1.17007C1.92096 1.16102 1.92393 1.15204 1.9271 1.14314C1.93029 1.13424 1.9337 1.12542 1.93732 1.11668C1.94095 1.10795 1.94478 1.0993 1.94881 1.09076C1.95285 1.08221 1.9571 1.07376 1.96156 1.06542C1.96603 1.05708 1.97068 1.04886 1.97554 1.04075C1.9804 1.03264 1.98546 1.02465 1.99071 1.01679C1.99596 1.00893 2.00142 1.0012 2.00704 0.993605C2.01268 0.98601 2.01849 0.978558 2.02448 0.971249C2.03048 0.963939 2.03667 0.956782 2.04301 0.949775C2.04937 0.942769 2.05588 0.935922 2.06256 0.929236C2.06924 0.92255 2.0761 0.916032 2.0831 0.909682C2.09012 0.903332 2.09728 0.897157 2.10457 0.891158C2.11188 0.88516 2.11934 0.879345 2.12693 0.873711C2.13453 0.868079 2.14226 0.862636 2.15012 0.857382C2.15799 0.852129 2.16598 0.847071 2.17407 0.84221C2.1822 0.837349 2.19042 0.83269 2.19874 0.828232C2.20709 0.823774 2.21554 0.819524 2.22409 0.815482C2.23263 0.811439 2.24128 0.807608 2.25001 0.803989C2.25876 0.800371 2.26757 0.796969 2.27646 0.793783C2.28537 0.790598 2.29435 0.787633 2.3034 0.784888C2.31245 0.782143 2.32156 0.779622 2.33073 0.777324C2.3399 0.775027 2.34912 0.772956 2.3584 0.771111C2.36768 0.769267 2.37699 0.76765 2.38634 0.766263C2.3957 0.764875 2.40507 0.763718 2.41448 0.762791C2.4239 0.761864 2.43332 0.761169 2.44276 0.760705C2.45221 0.760242 2.46167 0.76001 2.47112 0.76001ZM11.5378 11.0489C11.5283 11.0489 11.5189 11.0487 11.5094 11.0482C11.5 11.0477 11.4906 11.047 11.4812 11.0461C11.4717 11.0452 11.4624 11.044 11.453 11.0426C11.4437 11.0413 11.4343 11.0396 11.4251 11.0378C11.4158 11.0359 11.4066 11.0339 11.3974 11.0316C11.3882 11.0293 11.3791 11.0268 11.3701 11.024C11.361 11.0213 11.352 11.0183 11.3431 11.0151C11.3342 11.0119 11.3254 11.0085 11.3167 11.0049C11.3079 11.0013 11.2993 10.9975 11.2907 10.9934C11.2822 10.9894 11.2738 10.9851 11.2654 10.9807C11.2571 10.9762 11.2489 10.9716 11.2407 10.9667C11.2326 10.9618 11.2247 10.9568 11.2168 10.9515C11.2089 10.9463 11.2012 10.9408 11.1936 10.9352C11.186 10.9296 11.1786 10.9237 11.1712 10.9177C11.1639 10.9117 11.1568 10.9056 11.1498 10.8992C11.1428 10.8929 11.1359 10.8864 11.1292 10.8797C11.1225 10.873 11.116 10.8661 11.1097 10.8591C11.1033 10.8521 11.0972 10.845 11.0912 10.8377C11.0852 10.8303 11.0793 10.8229 11.0737 10.8153C11.0681 10.8077 11.0626 10.8 11.0574 10.7921C11.0521 10.7843 11.0471 10.7763 11.0422 10.7682C11.0374 10.76 11.0327 10.7518 11.0282 10.7435C11.0238 10.7351 11.0195 10.7267 11.0155 10.7182C11.0114 10.7096 11.0076 10.701 11.004 10.6922C11.0004 10.6835 10.997 10.6747 10.9938 10.6658C10.9906 10.6569 10.9876 10.6479 10.9849 10.6388C10.9821 10.6298 10.9796 10.6207 10.9773 10.6115C10.975 10.6023 10.9729 10.5931 10.9711 10.5838C10.9693 10.5746 10.9677 10.5652 10.9663 10.5559C10.9649 10.5465 10.9637 10.5372 10.9628 10.5277C10.9619 10.5183 10.9612 10.5089 10.9607 10.4995C10.9602 10.49 10.96 10.4806 10.96 10.4711L10.96 4.04888L4.53778 4.04888C4.52834 4.04888 4.51888 4.04867 4.50943 4.0482C4.49999 4.04773 4.49056 4.04704 4.48115 4.0461C4.47174 4.04518 4.46235 4.04403 4.45301 4.04263C4.44367 4.04126 4.43434 4.03963 4.42506 4.03779C4.41579 4.03595 4.40657 4.03389 4.39738 4.03157C4.38823 4.02929 4.37912 4.02676 4.37006 4.02401C4.36103 4.02128 4.35204 4.01831 4.34313 4.01512C4.33423 4.01193 4.32542 4.00854 4.31667 4.00492C4.30795 4.00129 4.29931 3.99746 4.29074 3.99342C4.28221 3.98938 4.27376 3.98513 4.26542 3.98067C4.25709 3.97621 4.24887 3.97156 4.24074 3.9667C4.23263 3.96184 4.22465 3.95678 4.21679 3.95153C4.20893 3.94628 4.2012 3.94082 4.1936 3.93518C4.18601 3.92956 4.17856 3.92374 4.17124 3.91774C4.16393 3.91174 4.15678 3.90557 4.14978 3.89921C4.14278 3.89287 4.13592 3.88635 4.12923 3.87967C4.12254 3.87298 4.11603 3.86613 4.10968 3.85912C4.10334 3.85212 4.09715 3.84496 4.09115 3.83765C4.08515 3.83034 4.07934 3.82288 4.0737 3.81529C4.06807 3.8077 4.06263 3.79998 4.05737 3.7921C4.05212 3.78426 4.04707 3.77628 4.0422 3.76815C4.03735 3.76004 4.0327 3.75182 4.02823 3.74348C4.02378 3.73513 4.01953 3.7267 4.01548 3.71815C4.01145 3.7096 4.0076 3.70096 4.00398 3.69221C4.00037 3.68349 3.99696 3.67467 3.99378 3.66576C3.99059 3.65685 3.98763 3.64788 3.98488 3.63884C3.98213 3.62979 3.97962 3.62068 3.97732 3.61151C3.97503 3.60234 3.97295 3.59312 3.9711 3.58384C3.96926 3.57456 3.96765 3.56524 3.96626 3.55588C3.96488 3.54654 3.96373 3.53717 3.96279 3.52774C3.96187 3.51834 3.96117 3.50892 3.9607 3.49946C3.96024 3.49003 3.96001 3.48057 3.96001 3.47112C3.96001 3.46167 3.96024 3.45221 3.9607 3.44276C3.96117 3.43332 3.96187 3.4239 3.96279 3.41448C3.96373 3.40507 3.96488 3.3957 3.96626 3.38634C3.96765 3.37699 3.96926 3.36768 3.9711 3.3584C3.97295 3.34912 3.97503 3.3399 3.97732 3.33073C3.97962 3.32156 3.98213 3.31245 3.98488 3.3034C3.98763 3.29435 3.99059 3.28537 3.99378 3.27646C3.99696 3.26757 4.00037 3.25876 4.00398 3.25001C4.0076 3.24128 4.01145 3.23263 4.01548 3.22409C4.01953 3.21554 4.02378 3.20709 4.02823 3.19874C4.0327 3.19042 4.03735 3.1822 4.0422 3.17407C4.04707 3.16598 4.05212 3.15799 4.05737 3.15012C4.06263 3.14226 4.06807 3.13453 4.0737 3.12693C4.07934 3.11934 4.08515 3.11188 4.09115 3.10457C4.09715 3.09728 4.10334 3.09012 4.10968 3.0831C4.11603 3.0761 4.12254 3.06924 4.12923 3.06256C4.13592 3.05588 4.14278 3.04937 4.14978 3.04301C4.15678 3.03667 4.16393 3.03048 4.17124 3.02448C4.17856 3.01849 4.18601 3.01268 4.1936 3.00704C4.2012 3.00142 4.20893 2.99596 4.21679 2.99071C4.22465 2.98546 4.23263 2.9804 4.24074 2.97554C4.24887 2.97068 4.25709 2.96603 4.26542 2.96156C4.27376 2.9571 4.28221 2.95285 4.29074 2.94881C4.29931 2.94478 4.30795 2.94095 4.31668 2.93732C4.32542 2.9337 4.33423 2.93029 4.34313 2.9271C4.35204 2.92393 4.36103 2.92096 4.37006 2.91821C4.37912 2.91548 4.38823 2.91296 4.39738 2.91065C4.40657 2.90835 4.41579 2.90628 4.42506 2.90443C4.43434 2.90259 4.44367 2.90098 4.45301 2.89959C4.46235 2.89821 4.47174 2.89706 4.48115 2.89612C4.49056 2.8952 4.49999 2.89449 4.50943 2.89403C4.51888 2.89357 4.52834 2.89334 4.53778 2.89334L11.4489 2.89334C11.4598 2.89334 11.4707 2.8936 11.4816 2.89413C11.4925 2.89468 11.5034 2.89548 11.5142 2.89654C11.5251 2.89762 11.5359 2.89896 11.5467 2.90056C11.5575 2.90215 11.5683 2.90403 11.5789 2.90615C11.5897 2.90828 11.6003 2.91067 11.6109 2.91332C11.6215 2.91598 11.632 2.91888 11.6424 2.92204C11.6529 2.92521 11.6632 2.92863 11.6735 2.93231C11.6838 2.93599 11.6939 2.93992 11.704 2.94409C11.7141 2.94828 11.7241 2.95268 11.7339 2.95734C11.7438 2.96201 11.7535 2.96692 11.7632 2.97206C11.7728 2.97721 11.7823 2.98259 11.7916 2.98818C11.801 2.99381 11.8102 2.99963 11.8193 3.0057C11.8284 3.01176 11.8373 3.01803 11.846 3.02453C11.8548 3.03103 11.8634 3.03774 11.8718 3.04467C11.8803 3.05159 11.8885 3.05871 11.8966 3.06604C11.9047 3.07337 11.9126 3.08088 11.9203 3.0886C11.928 3.09632 11.9355 3.10421 11.9429 3.11229C11.9502 3.12038 11.9573 3.12863 11.9642 3.13707C11.9712 3.14551 11.9779 3.15412 11.9844 3.16287C11.9909 3.17163 11.9972 3.18056 12.0032 3.18962C12.0093 3.1987 12.0151 3.20792 12.0207 3.21726C12.0263 3.22663 12.0317 3.23612 12.0368 3.24574C12.042 3.25537 12.0469 3.2651 12.0516 3.27496C12.0562 3.28484 12.0607 3.29481 12.0648 3.30488C12.069 3.31496 12.0729 3.32513 12.0766 3.33542C12.0803 3.3457 12.0837 3.35604 12.0869 3.36648C12.09 3.37692 12.0929 3.38743 12.0956 3.39801C12.0982 3.4086 12.1006 3.41924 12.1027 3.42995C12.1049 3.44065 12.1067 3.4514 12.1083 3.46218C12.1099 3.47298 12.1113 3.48381 12.1124 3.49467C12.1134 3.50553 12.1142 3.5164 12.1148 3.52729C12.1153 3.5382 12.1156 3.5491 12.1156 3.56001L12.1156 10.4711C12.1156 10.4806 12.1153 10.49 12.1149 10.4995C12.1144 10.5089 12.1137 10.5183 12.1128 10.5277C12.1119 10.5372 12.1107 10.5465 12.1093 10.5559C12.1079 10.5652 12.1063 10.5746 12.1045 10.5838C12.1026 10.5931 12.1005 10.6023 12.0982 10.6115C12.0959 10.6207 12.0934 10.6298 12.0907 10.6388C12.0879 10.6479 12.085 10.6569 12.0818 10.6658C12.0786 10.6747 12.0752 10.6835 12.0716 10.6922C12.068 10.701 12.0641 10.7096 12.0601 10.7182C12.0561 10.7267 12.0518 10.7351 12.0473 10.7435C12.0429 10.7518 12.0382 10.76 12.0334 10.7682C12.0285 10.7763 12.0234 10.7843 12.0182 10.7921C12.0129 10.8 12.0075 10.8077 12.0019 10.8153C11.9962 10.8229 11.9904 10.8303 11.9844 10.8377C11.9784 10.845 11.9722 10.8521 11.9659 10.8591C11.9595 10.8661 11.953 10.873 11.9463 10.8797C11.9397 10.8864 11.9328 10.8929 11.9258 10.8992C11.9188 10.9056 11.9116 10.9117 11.9043 10.9177C11.897 10.9237 11.8896 10.9296 11.882 10.9352C11.8744 10.9408 11.8667 10.9463 11.8588 10.9515C11.8509 10.9568 11.8429 10.9618 11.8348 10.9667C11.8267 10.9716 11.8185 10.9762 11.8102 10.9807C11.8018 10.9851 11.7934 10.9894 11.7848 10.9934C11.7763 10.9975 11.7676 11.0013 11.7589 11.0049C11.7502 11.0085 11.7413 11.0119 11.7324 11.0151C11.7235 11.0183 11.7146 11.0213 11.7055 11.024C11.6965 11.0268 11.6874 11.0293 11.6782 11.0316C11.669 11.0339 11.6598 11.0359 11.6505 11.0378C11.6412 11.0396 11.6319 11.0413 11.6226 11.0426C11.6132 11.044 11.6038 11.0452 11.5944 11.0461C11.585 11.047 11.5756 11.0477 11.5661 11.0482C11.5567 11.0487 11.5472 11.0489 11.5378 11.0489ZM3.92888 10.3342C3.9222 10.3409 3.91568 10.3478 3.90932 10.3548C3.90298 10.3618 3.89679 10.369 3.89078 10.3763C3.88478 10.3836 3.87896 10.3911 3.87332 10.3987C3.8677 10.4062 3.86224 10.414 3.85698 10.4219C3.85173 10.4297 3.84667 10.4377 3.84179 10.4458C3.83693 10.454 3.83228 10.4622 3.82781 10.4705C3.82335 10.4789 3.8191 10.4873 3.81504 10.4959C3.81101 10.5044 3.80717 10.5131 3.80354 10.5218C3.79992 10.5306 3.79651 10.5394 3.79332 10.5483C3.79013 10.5572 3.78718 10.5662 3.78443 10.5753C3.78168 10.5843 3.77917 10.5934 3.77685 10.6026C3.77456 10.6118 3.77248 10.621 3.77063 10.6303C3.76879 10.6396 3.76718 10.6489 3.76579 10.6583C3.7644 10.6676 3.76324 10.677 3.76231 10.6864C3.76138 10.6959 3.7607 10.7053 3.76023 10.7147C3.75976 10.7242 3.75953 10.7337 3.75953 10.7431C3.75953 10.7526 3.75976 10.762 3.76023 10.7715C3.7607 10.7809 3.76138 10.7904 3.76231 10.7998C3.76324 10.8092 3.7644 10.8186 3.76579 10.828C3.76718 10.8373 3.76879 10.8467 3.77063 10.8559C3.77248 10.8652 3.77456 10.8744 3.77685 10.8836C3.77917 10.8928 3.78168 10.9019 3.78443 10.911C3.78718 10.92 3.79013 10.929 3.79332 10.9379C3.79651 10.9468 3.79992 10.9557 3.80354 10.9644C3.80717 10.9732 3.81101 10.9818 3.81504 10.9904C3.8191 10.9989 3.82335 11.0074 3.82781 11.0157C3.83228 11.0241 3.83693 11.0323 3.84179 11.0404C3.84667 11.0485 3.85173 11.0565 3.85698 11.0644C3.86224 11.0722 3.8677 11.08 3.87332 11.0876C3.87896 11.0952 3.88479 11.1027 3.89079 11.11C3.89679 11.1173 3.90298 11.1244 3.90932 11.1314C3.91568 11.1385 3.9222 11.1453 3.92888 11.152C3.93559 11.1587 3.94245 11.1652 3.94945 11.1716C3.95646 11.1779 3.96363 11.1841 3.97095 11.1901C3.97826 11.1961 3.98573 11.2019 3.99332 11.2076C4.00092 11.2132 4.00865 11.2187 4.01653 11.2239C4.0244 11.2292 4.03238 11.2342 4.04049 11.2391C4.04862 11.244 4.05685 11.2486 4.0652 11.2531C4.07354 11.2576 4.08199 11.2618 4.09054 11.2659C4.0991 11.2699 4.10776 11.2737 4.11649 11.2774C4.12524 11.281 4.13407 11.2844 4.14298 11.2876C4.15188 11.2908 4.16087 11.2937 4.16992 11.2965C4.17898 11.2992 4.1881 11.3017 4.19728 11.304C4.20646 11.3064 4.21568 11.3084 4.22496 11.3103C4.23424 11.3121 4.24357 11.3137 4.25293 11.3151C4.26231 11.3165 4.2717 11.3177 4.2811 11.3186C4.29053 11.3195 4.29996 11.3202 4.3094 11.3207C4.31887 11.3211 4.32832 11.3214 4.33778 11.3214C4.34724 11.3214 4.35671 11.3211 4.36615 11.3207C4.37562 11.3202 4.38506 11.3195 4.39446 11.3186C4.40388 11.3177 4.41328 11.3165 4.42263 11.3151C4.43199 11.3137 4.44131 11.3121 4.45059 11.3103C4.45987 11.3084 4.4691 11.3064 4.47829 11.304C4.48748 11.3017 4.49659 11.2992 4.50563 11.2965C4.5147 11.2937 4.52368 11.2908 4.53259 11.2876C4.54151 11.2844 4.55034 11.281 4.55907 11.2774C4.56782 11.2737 4.57646 11.2699 4.58501 11.2659C4.59357 11.2618 4.60203 11.2576 4.61037 11.2531C4.61871 11.2486 4.62695 11.244 4.63506 11.2391C4.64318 11.2342 4.65118 11.2292 4.65904 11.2239C4.66692 11.2187 4.67465 11.2132 4.68224 11.2076C4.68985 11.2019 4.69731 11.1961 4.70462 11.1901C4.71193 11.1841 4.7191 11.1779 4.72612 11.1716C4.73313 11.1652 4.73998 11.1587 4.74667 11.152L10.1511 5.74667C10.1578 5.73998 10.1643 5.73313 10.1707 5.72613C10.177 5.71913 10.1832 5.71198 10.1892 5.70467C10.1952 5.69735 10.201 5.6899 10.2066 5.68231C10.2123 5.67471 10.2177 5.66699 10.223 5.65912C10.2282 5.65128 10.2333 5.64329 10.2382 5.63517C10.243 5.62707 10.2477 5.61884 10.2521 5.61049C10.2566 5.60217 10.2609 5.59373 10.2649 5.58517C10.2689 5.57663 10.2728 5.56799 10.2764 5.55924C10.28 5.55051 10.2834 5.5417 10.2866 5.53279C10.2898 5.52388 10.2927 5.51492 10.2955 5.50587C10.2982 5.49682 10.3008 5.48771 10.3031 5.47854C10.3054 5.46937 10.3074 5.46015 10.3093 5.45087C10.3111 5.4416 10.3128 5.43229 10.3141 5.42293C10.3155 5.41359 10.3167 5.4042 10.3176 5.39478C10.3186 5.38537 10.3192 5.37595 10.3197 5.36651C10.3202 5.35707 10.3204 5.34762 10.3204 5.33815C10.3204 5.3287 10.3202 5.31924 10.3197 5.30981C10.3193 5.30037 10.3186 5.29093 10.3177 5.28153C10.3167 5.27212 10.3156 5.26273 10.3142 5.25337C10.3128 5.24403 10.3112 5.23471 10.3094 5.22543C10.3075 5.21617 10.3054 5.20695 10.3032 5.19776C10.3009 5.1886 10.2983 5.17949 10.2956 5.17043C10.2929 5.16138 10.2899 5.1524 10.2867 5.14349C10.2835 5.13459 10.2801 5.12578 10.2765 5.11704C10.2729 5.10831 10.2691 5.09967 10.265 5.0911C10.261 5.08256 10.2568 5.07412 10.2523 5.06578C10.2479 5.05743 10.2432 5.04921 10.2383 5.04109C10.2335 5.03298 10.2284 5.02499 10.2232 5.01712C10.2179 5.00926 10.2125 5.00153 10.2069 4.99393C10.2012 4.98634 10.1954 4.97888 10.1894 4.97157C10.1834 4.96426 10.1772 4.9571 10.1709 4.95009C10.1646 4.94309 10.158 4.93623 10.1514 4.92954C10.1447 4.92285 10.1378 4.91632 10.1308 4.90996C10.1238 4.90362 10.1167 4.89743 10.1094 4.89143C10.1021 4.88543 10.0946 4.87962 10.087 4.87398C10.0794 4.86835 10.0717 4.8629 10.0639 4.85763C10.056 4.85238 10.048 4.84732 10.0399 4.84245C10.0318 4.83759 10.0236 4.83292 10.0152 4.82845C10.0069 4.82399 9.99846 4.81974 9.98992 4.81568C9.98137 4.81165 9.97273 4.80781 9.96399 4.80418C9.95528 4.80056 9.94645 4.79715 9.93754 4.79395C9.92865 4.79076 9.91968 4.78779 9.91062 4.78504C9.90159 4.78229 9.89248 4.77978 9.88329 4.77746C9.87414 4.77515 9.86492 4.77307 9.85563 4.77123C9.84637 4.76938 9.83706 4.76776 9.8277 4.76635C9.81835 4.76496 9.80896 4.76381 9.79956 4.76287C9.79015 4.76193 9.78073 4.76123 9.77128 4.76076C9.76184 4.76029 9.75239 4.76006 9.74293 4.76004C9.73348 4.76004 9.72403 4.76026 9.71457 4.76071C9.70513 4.76118 9.69571 4.76187 9.68629 4.76278C9.67688 4.7637 9.66751 4.76485 9.65815 4.76623C9.64881 4.7676 9.63948 4.76921 9.6302 4.77104C9.62093 4.77288 9.61171 4.77496 9.60253 4.77724C9.59335 4.77953 9.58424 4.78204 9.57518 4.78478C9.56615 4.78753 9.55717 4.79048 9.54826 4.79365C9.53935 4.79684 9.53054 4.80023 9.52179 4.80382C9.51306 4.80745 9.50442 4.81126 9.49585 4.81529C9.48731 4.81934 9.47885 4.82359 9.47051 4.82803C9.46217 4.83248 9.45395 4.83713 9.44582 4.84198C9.43771 4.84684 9.42973 4.85188 9.42185 4.85713C9.41398 4.86238 9.40624 4.86781 9.39865 4.87343C9.39106 4.87906 9.38359 4.88487 9.37628 4.89085C9.36896 4.89685 9.36181 4.90301 9.35479 4.90935C9.34778 4.9157 9.34092 4.92221 9.33423 4.92888L3.92978 10.3342L3.92888 10.3342Z"   fill="#0057FF" >
</path>
</g>
<defs>
<clipPath id="clip-path-0_1199">
<path d="M0 16L16 16L16 0L0 0L0 16Z" fill="white"/>
</clipPath>
</defs>
</svg>
