<svg xmlns="http://www.w3.org/2000/svg" xmlns:xlink="http://www.w3.org/1999/xlink" width="40" height="40" viewBox="0 0 40 40" fill="none">
<path d="M34.2 21.84L32.94 21.84C32.54 20.28 31.32 19.04 29.74 18.64L29.74 9.58L34.24 9.58C34.86 9.58 35.36 9.08 35.36 8.46C35.36 7.84 34.86 7.34 34.24 7.34L29.74 7.34L29.74 3.78C29.74 3.16 29.24 2.66 28.62 2.66C28 2.66 27.5 3.16 27.5 3.78L27.5 7.34L19.3 7.34C18.92 7.34 18.56 7.54 18.36 7.86L15.76 10.46L7.90004 10.46C7.28004 10.46 6.78004 10.96 6.78004 11.58C6.78004 12.2 7.28004 12.7 7.90004 12.7L12.36 12.7L12.36 21.84L7.90004 21.84C7.28004 21.84 6.78004 22.34 6.78004 22.96C6.78004 23.58 7.28004 24.08 7.90004 24.08L12.36 24.08L12.36 30.1C12.36 30.72 12.86 31.22 13.48 31.22C14.1 31.22 14.6 30.72 14.6 30.1L14.6 24.08L24.32 24.08C24.72 25.64 25.94 26.88 27.52 27.28L27.52 30.1C27.52 30.72 28.02 31.22 28.64 31.22C29.26 31.22 29.76 30.72 29.76 30.1L29.76 27.28C31.32 26.88 32.56 25.66 32.96 24.08L34.22 24.08C34.84 24.08 35.34 23.58 35.34 22.96C35.32 22.34 34.82 21.84 34.2 21.84ZM14.58 12.7L16.36 12.7C16.82 12.7 17.24 12.42 17.4 11.98L19.8 9.58L27.5 9.58L27.5 18.64C25.94 19.04 24.7 20.26 24.3 21.84L14.58 21.84L14.58 12.7ZM29.74 24.88C29.58 24.98 29.4 25.04 29.22 25.1C29.2 25.1 29.18 25.1 29.18 25.12C29.1 25.14 29.04 25.16 28.96 25.16C28.94 25.16 28.92 25.16 28.9 25.18C28.72 25.2 28.54 25.2 28.36 25.18C28.34 25.18 28.32 25.18 28.3 25.16C28.22 25.14 28.16 25.14 28.08 25.12C28.06 25.12 28.04 25.12 28.04 25.1C26.86 24.76 26.16 23.54 26.5 22.36C26.84 21.18 28.06 20.48 29.24 20.82C30.42 21.16 31.12 22.38 30.78 23.56C30.62 24.1 30.24 24.58 29.74 24.88ZM38.1 32.56L3.34004 32.56L3.34004 5.4C3.34004 4.62 2.72004 3.98 1.94004 3.98C1.16004 3.98 0.540039 4.62 0.540039 5.4L0.540039 33.98C0.540039 34.76 1.16004 35.4 1.94004 35.4L38.08 35.4C38.84 35.4 39.4801 34.76 39.4801 33.98C39.4801 33.2 38.86 32.56 38.1 32.56Z"   fill="url(#linear_fill_haMu5FlR7cEGOCLyGy-6B)" >
</path>
<defs>
<linearGradient id="linear_fill_haMu5FlR7cEGOCLyGy-6B" x1="50.967529296875" y1="44.29644966125488" x2="-8.862548828125" y2="-3.733795166015625" gradientUnits="userSpaceOnUse">
<stop offset="0" stop-color="#3C50FF" stop-opacity="0" />
<stop offset="0.6181" stop-color="#3DBBFF" stop-opacity="0.62" />
<stop offset="1" stop-color="#3C50FF"  />
</linearGradient>
</defs>
</svg>
