<svg xmlns="http://www.w3.org/2000/svg" xmlns:xlink="http://www.w3.org/1999/xlink" width="20" height="20" viewBox="0 0 20 20" fill="none">
<path d="M10.0236 17.5449C7.94545 17.5449 5.98842 17.3652 4.5099 17.0352C2.77358 16.6465 1.82632 16.1074 1.93179 15.4082C2.00405 14.9199 2.31265 14.6816 3.07437 14.4004C3.71108 14.166 4.96498 13.8691 5.97475 13.7051C6.20912 13.666 6.39271 13.8106 6.43178 14.043C6.47084 14.2773 6.30678 14.4531 6.07436 14.4922C5.20717 14.6328 4.00795 14.8984 3.49624 15.1016C2.92983 15.3262 2.98452 15.3906 2.98452 15.4336C2.98452 15.4688 2.99624 15.6074 3.38296 15.7891C3.75796 15.9648 4.30092 16.1289 4.95326 16.2676C6.35365 16.5605 8.18764 16.7227 10.1232 16.7227C12.0568 16.7227 13.8927 16.5605 15.2931 16.2676C15.9474 16.1309 16.4904 15.9648 16.8634 15.7891C17.2521 15.6094 17.1798 15.4727 17.1954 15.4414C17.1759 15.4023 17.1232 15.3262 16.5568 15.1035C16.0451 14.9004 14.9474 14.6406 14.0822 14.5C13.8478 14.4609 13.6857 14.2988 13.7228 14.0645C13.7619 13.8301 13.965 13.668 14.1994 13.7051C15.2091 13.8672 16.3283 14.1797 16.9728 14.3984C17.7404 14.6582 18.0431 14.918 18.1173 15.4102C18.2228 16.1094 17.2736 16.6504 15.5353 17.0352C14.0587 17.3652 12.1017 17.5449 10.0236 17.5449Z"   fill="#F34234" >
</path>
<path d="M9.97656 1.91797C7.35742 1.91797 5.29883 4.03516 5.30274 6.65234C5.30274 6.73047 5.30469 6.8125 5.3086 6.89258C5.33594 7.45117 5.50782 8.00977 5.72657 8.52148L5.72657 8.52344L6.07618 9.19727C6.10547 9.25391 8.98047 14.6113 9.30078 15.1172C9.48047 15.4004 9.78125 15.5215 9.99414 15.5215C10.2012 15.5215 10.5332 15.4102 10.6836 15.1172C10.9238 14.6484 14.1172 9.19727 14.1172 9.19727C14.1172 9.19727 14.4141 8.68555 14.4824 8.52148C14.7441 7.90234 14.8516 7.56055 14.8789 6.88672C14.8809 6.81641 14.8828 6.70312 14.8828 6.64648C14.8809 4.02344 12.5957 1.91797 9.97656 1.91797ZM10.0234 9.12305C8.57422 9.12305 7.40039 7.94922 7.40039 6.5C7.40039 5.05078 8.57422 3.87695 10.0234 3.87695C11.4727 3.87695 12.6465 5.05078 12.6465 6.5C12.6465 7.94922 11.4727 9.12305 10.0234 9.12305Z"   fill="#F34234" >
</path>
</svg>
