<svg xmlns="http://www.w3.org/2000/svg" xmlns:xlink="http://www.w3.org/1999/xlink" width="40" height="40" viewBox="0 0 40 40" fill="none">
<path d="M12.84 18.24C13.08 18.6 14.08 20.12 19.12 27.32L19.16 27.36C19.44 27.72 19.92 27.96 20.36 27.96C20.84 27.96 21.32 27.72 21.56 27.32C23.72 24.2 27.8 18.32 27.96 18.12L28 18.08C28.84 16.68 29.32 15.04 29.32 13.4C29.32 8.48 25.32 4.44 20.36 4.44C15.4 4.44 11.4 8.44 11.4 13.4C11.4 15.12 11.88 16.76 12.84 18.24ZM20.32 6.72C24 6.72 27 9.72 27 13.4C27 14.6 26.68 15.76 26.04 16.88C25.8 17.24 22.52 21.96 20.36 25.08C18.68 22.68 15.04 17.44 14.68 16.96C14 15.92 13.6 14.68 13.6 13.44C13.64 9.76 16.64 6.72 20.32 6.72ZM20.32 18.4C23.04 18.4 25.28 16.16 25.28 13.44C25.28 10.72 23.04 8.48 20.32 8.48C17.6 8.48 15.36 10.72 15.36 13.44C15.36 16.16 17.56 18.4 20.32 18.4ZM20.32 10.72C21.8 10.72 23 11.92 23 13.4C23 14.92 21.8 16.08 20.32 16.08C18.84 16.08 17.64 14.88 17.64 13.4C17.64 11.92 18.84 10.72 20.32 10.72ZM39.3197 30.04L33.76 19.28L29.16 19.28L27.36 21.6L32.36 21.6L37.44 31.32L37.52 31.4C37.8 31.76 37.8 32.24 37.6 32.64C37.4 33.04 37 33.28 36.52 33.28L3.52 33.28C3.04 33.28 2.64 33.04 2.44 32.64C2.24 32.2 2.28 31.76 2.56 31.36L2.6 31.32L7.60001 21.56L13.28 21.56L11.4 19.24L6.20001 19.24L0.640002 30.04C-0.119998 31.12 -0.199998 32.48 0.400002 33.6C1.04 34.8 2.2 35.52 3.56 35.52L36.56 35.52C37.88 35.52 39.0799 34.8 39.6799 33.6C40.1998 32.44 40.0799 31.08 39.3197 30.04Z"   fill="url(#linear_fill_VjLBuVknPiXv2Npo4dX7q)" >
</path>
<defs>
<linearGradient id="linear_fill_VjLBuVknPiXv2Npo4dX7q" x1="51.79513359069824" y1="43.96537399291992" x2="-9.653999328613281" y2="-1.629608154296875" gradientUnits="userSpaceOnUse">
<stop offset="0" stop-color="#3C50FF" stop-opacity="0" />
<stop offset="0.6181" stop-color="#3DBBFF" stop-opacity="0.62" />
<stop offset="1" stop-color="#3C50FF"  />
</linearGradient>
</defs>
</svg>
