<svg xmlns="http://www.w3.org/2000/svg" xmlns:xlink="http://www.w3.org/1999/xlink" width="16" height="14.953277587890625" viewBox="0 0 16 14.953277587890625" fill="none">
<path d="M15.5939 14.9489L5.27089 14.9489L4.43083 11.7723L15.5939 9.78475L15.5939 14.9489ZM3.31858 14.9489L0 14.9489L0 12.5611L2.5618 12.1053L3.31858 14.9489ZM0 10.6248L0 5.32297C0.112073 5.45318 0.232701 5.57701 0.361854 5.69121L2.83504 9.16565L5.30825 5.68802C5.35898 5.64421 5.40851 5.59908 5.45683 5.55264C5.50517 5.50619 5.55222 5.4585 5.59801 5.40955C5.6438 5.3606 5.68825 5.31045 5.73137 5.25914C5.77448 5.20783 5.8162 5.15539 5.85654 5.10186C5.89686 5.04832 5.93574 4.99374 5.97315 4.93813C6.01057 4.88253 6.0465 4.82596 6.0809 4.76844C6.11531 4.71092 6.14816 4.65253 6.17946 4.59326C6.21076 4.53399 6.24047 4.47393 6.26857 4.41307C6.29667 4.35221 6.32312 4.29066 6.34796 4.2284C6.37279 4.16613 6.39593 4.10326 6.4174 4.03977C6.43888 3.97628 6.45866 3.91225 6.47672 3.84771C6.49479 3.78317 6.51112 3.71818 6.52574 3.65276C6.54035 3.58734 6.5532 3.52158 6.56431 3.45549C6.57542 3.38939 6.58474 3.32304 6.59232 3.25644C6.5999 3.18984 6.60569 3.12308 6.60971 3.05618C6.61372 2.98927 6.61597 2.92229 6.61642 2.85527C6.61688 2.78825 6.61553 2.72127 6.61242 2.65431C6.60931 2.58734 6.60442 2.52053 6.59775 2.45383C6.59108 2.38714 6.58263 2.32067 6.57242 2.25442C6.56222 2.18818 6.55025 2.12225 6.53653 2.05664C6.5228 1.99104 6.50734 1.92584 6.49015 1.86105C6.47296 1.79626 6.45406 1.73199 6.43345 1.66821C6.41282 1.60442 6.39053 1.54124 6.36654 1.47866C6.34255 1.41606 6.31693 1.35415 6.28966 1.29293C6.26238 1.2317 6.2335 1.17125 6.20301 1.11156C6.17251 1.05187 6.14044 0.993032 6.10682 0.935051C6.0732 0.87707 6.03804 0.820025 6.00137 0.763915C5.96472 0.707806 5.92658 0.652711 5.88698 0.598631C5.84737 0.544552 5.80637 0.491565 5.76396 0.439669C5.72153 0.387772 5.67777 0.337042 5.63264 0.287476C5.58752 0.237911 5.54111 0.189581 5.49342 0.142487C5.44572 0.0953928 5.3968 0.0496008 5.34667 0.00511103L9.3847 0.00511103L11.7213 8.53587L0 10.6237L0 10.6248ZM13.5871 8.20498L11.3402 0.00509644L15.5927 0.00509644L15.5927 7.84845L13.5871 8.20495L13.5871 8.20498ZM2.83505 7.7193L0.979883 5.06892C0.950101 5.04226 0.920876 5.01501 0.892212 4.98715C0.863547 4.9593 0.835467 4.93086 0.807971 4.90186C0.780474 4.87285 0.753584 4.84329 0.727301 4.81317C0.701017 4.78305 0.675363 4.75242 0.650339 4.72126C0.625314 4.69009 0.600939 4.65841 0.577215 4.62625C0.553491 4.59409 0.530435 4.56145 0.50805 4.52832C0.485666 4.49521 0.463969 4.46165 0.442964 4.42765C0.421958 4.39365 0.401657 4.35923 0.382063 4.32438C0.36247 4.28955 0.3436 4.25432 0.325453 4.2187C0.307305 4.1831 0.289896 4.14713 0.273226 4.1108C0.256556 4.07447 0.240639 4.03781 0.225474 4.00083C0.210309 3.96386 0.195909 3.92657 0.182274 3.88901C0.168639 3.85143 0.155781 3.81359 0.143701 3.77549C0.13162 3.73739 0.120326 3.69905 0.109819 3.6605C0.0993115 3.62193 0.0896001 3.58317 0.0806845 3.54421C0.0717691 3.50524 0.0636568 3.46612 0.0563477 3.42682C0.0490388 3.38752 0.0425394 3.34809 0.0368493 3.30853C0.0311593 3.26897 0.0262835 3.2293 0.022222 3.18953C0.0181606 3.14978 0.0149168 3.10994 0.0124906 3.07005C0.0100644 3.03015 0.00845803 2.99022 0.00767136 2.95026C0.00688469 2.91031 0.00691839 2.87034 0.0077725 2.83038C0.0086266 2.79042 0.0103004 2.7505 0.0127938 2.7106C0.0152873 2.6707 0.0185982 2.63088 0.0227269 2.59113C0.0268555 2.55137 0.0317981 2.51171 0.0375549 2.47216C0.0433117 2.43261 0.0498777 2.39318 0.0572528 2.3539C0.0646282 2.31461 0.0728064 2.27551 0.0817877 2.23656C0.0907689 2.19761 0.100546 2.15886 0.111118 2.12032C0.12169 2.08177 0.133049 2.04346 0.145194 2.00537C0.157339 1.96729 0.170261 1.92948 0.183959 1.89193C0.197657 1.85438 0.21212 1.81713 0.227347 1.78018C0.242575 1.74323 0.258555 1.7066 0.275286 1.67029C0.292018 1.63399 0.309486 1.59805 0.327693 1.56247C0.345374 1.52714 0.36379 1.49221 0.382942 1.45765C0.402093 1.42309 0.421964 1.38896 0.442553 1.35524C0.463142 1.32153 0.484431 1.28826 0.50642 1.25544C0.52841 1.22262 0.551082 1.19027 0.574432 1.15841C0.597784 1.12654 0.621796 1.09518 0.646467 1.06433C0.67114 1.03348 0.69645 1.00315 0.722399 0.973365C0.748347 0.943577 0.774911 0.914346 0.802091 0.885676C0.82927 0.857006 0.857041 0.82892 0.885403 0.801419C0.913765 0.773918 0.942693 0.747026 0.972187 0.720743C1.00168 0.69446 1.03172 0.668809 1.06229 0.643791C1.09286 0.618774 1.12395 0.594409 1.15555 0.570699C1.18715 0.54699 1.21924 0.523956 1.25181 0.501599C1.28438 0.479239 1.3174 0.457577 1.35088 0.436609C1.38437 0.415641 1.41827 0.395387 1.45261 0.375847C1.48695 0.356307 1.52168 0.337498 1.5568 0.319421C1.59193 0.301343 1.62742 0.284012 1.66327 0.267428C1.69914 0.250845 1.73533 0.235023 1.77184 0.219964C1.80836 0.204904 1.8452 0.190619 1.88232 0.177111C1.91945 0.163602 1.95683 0.150879 1.9945 0.138945C2.03215 0.12701 2.07004 0.115873 2.10818 0.105534C2.14631 0.0951947 2.18464 0.0856624 2.22317 0.076937C2.26169 0.0682116 2.30039 0.060301 2.33926 0.0532051C2.37812 0.0461091 2.41711 0.0398341 2.45623 0.0343801C2.49537 0.0289259 2.5346 0.0242977 2.57391 0.0204953C2.61323 0.0166927 2.65261 0.0137194 2.69207 0.0115753C2.73152 0.00943112 2.77099 0.00811801 2.8105 0.00763597C2.85 0.00715391 2.88949 0.00750335 2.92898 0.00868427C2.96847 0.00986519 3.00791 0.0118766 3.04731 0.0147183C3.08672 0.0175602 3.12604 0.0212299 3.1653 0.0257275C3.20455 0.0302252 3.24368 0.0355467 3.2827 0.0416922C3.32172 0.0478377 3.36061 0.0548017 3.39934 0.0625842C3.43807 0.0703668 3.47663 0.0789608 3.51499 0.0883665C3.55352 0.0982484 3.59182 0.108927 3.62991 0.120402C3.668 0.131877 3.70582 0.144139 3.74339 0.157187C3.78096 0.170235 3.81825 0.184058 3.85526 0.198657C3.89225 0.213257 3.92892 0.228618 3.96528 0.244742C4.00165 0.260866 4.03765 0.277739 4.07331 0.295361C4.10898 0.312983 4.14425 0.331339 4.17914 0.350428C4.21404 0.369515 4.24853 0.389321 4.2826 0.409845C4.31666 0.430368 4.35029 0.45159 4.38347 0.473511C4.41667 0.495434 4.44939 0.518035 4.48164 0.541317C4.51388 0.5646 4.54564 0.588542 4.57689 0.613145C4.60815 0.637748 4.63886 0.662988 4.66907 0.688869C4.69927 0.714749 4.72893 0.741247 4.75803 0.768361C4.78712 0.795475 4.81565 0.823181 4.84361 0.85148C4.87155 0.87978 4.89889 0.908648 4.92565 0.938086C4.95239 0.967524 4.97851 0.997504 5.00401 1.02803C5.02952 1.05855 5.05438 1.08959 5.07858 1.12115C5.1028 1.15271 5.12634 1.18475 5.14921 1.21729C5.17209 1.24983 5.19429 1.28283 5.2158 1.31628C5.2373 1.34974 5.25809 1.38364 5.27819 1.41796C5.29829 1.45228 5.31766 1.48701 5.33632 1.52215C5.35496 1.55727 5.37288 1.59278 5.39006 1.62866C5.40723 1.66453 5.42365 1.70075 5.43931 1.7373C5.45498 1.77386 5.46988 1.81072 5.48403 1.8479C5.49816 1.88508 5.51152 1.92254 5.5241 1.96028C5.53667 1.99802 5.54847 2.03599 5.55946 2.07421C5.57045 2.11244 5.58066 2.15088 5.59006 2.18952C5.59946 2.22816 5.60806 2.26699 5.61584 2.306C5.62362 2.34499 5.6306 2.38415 5.63674 2.42345C5.64291 2.46273 5.64825 2.50215 5.65276 2.54167C5.65728 2.58118 5.66098 2.62078 5.66385 2.66044C5.66673 2.70012 5.66877 2.73983 5.66999 2.77958C5.67121 2.81933 5.67161 2.8591 5.67117 2.89888C5.67117 3.72932 5.31358 4.5192 4.69022 5.06786L2.83612 7.71824L2.83505 7.7193ZM2.83505 1.45359C2.8118 1.45423 2.78858 1.45542 2.76539 1.45718C2.74219 1.45894 2.71907 1.46125 2.69599 1.46412C2.67291 1.46699 2.6499 1.47042 2.62699 1.47441C2.60407 1.4784 2.58127 1.48292 2.55857 1.488C2.53587 1.49308 2.51331 1.4987 2.49089 1.50488C2.46845 1.51105 2.44619 1.51775 2.4241 1.52499C2.402 1.53225 2.38009 1.54002 2.35835 1.54832C2.33663 1.55663 2.31511 1.56545 2.29381 1.57478C2.27251 1.58412 2.25145 1.59397 2.23063 1.60432C2.2098 1.61467 2.18924 1.62553 2.16893 1.63688C2.14863 1.64822 2.1286 1.66006 2.10888 1.67237C2.08915 1.68467 2.06972 1.69746 2.0506 1.71072C2.03149 1.72396 2.0127 1.73767 1.99425 1.75183C1.9758 1.76597 1.95769 1.78057 1.93994 1.79559C1.92219 1.81063 1.90482 1.82607 1.88781 1.84194C1.8708 1.85781 1.85419 1.87409 1.83797 1.89075C1.82175 1.90742 1.80596 1.92447 1.79055 1.9419C1.77515 1.95934 1.76019 1.97714 1.74565 1.99529C1.73111 2.01343 1.71702 2.03193 1.70337 2.05076C1.68972 2.06961 1.67653 2.08876 1.66381 2.10822C1.65109 2.1277 1.63885 2.14746 1.62708 2.16752C1.6153 2.18758 1.60403 2.20791 1.59324 2.22851C1.58245 2.24913 1.57216 2.26999 1.56238 2.29108C1.5526 2.31218 1.54333 2.33351 1.53458 2.35505C1.52582 2.3766 1.51759 2.39835 1.50988 2.42029C1.50219 2.44224 1.49502 2.46435 1.48838 2.48664C1.48174 2.50894 1.47565 2.53137 1.47009 2.55396C1.46453 2.57654 1.45952 2.59926 1.45507 2.62209C1.45061 2.64491 1.4467 2.66783 1.44335 2.69085C1.43999 2.71387 1.4372 2.73695 1.43496 2.76009C1.43272 2.78324 1.43104 2.80644 1.42991 2.82967C1.42879 2.85289 1.42823 2.87615 1.42823 2.8994C1.42823 2.92266 1.42879 2.94591 1.42991 2.96914C1.43104 2.99237 1.43272 3.01556 1.43496 3.03872C1.4372 3.06186 1.43999 3.08494 1.44335 3.10796C1.4467 3.13098 1.45061 3.1539 1.45507 3.17672C1.45952 3.19955 1.46453 3.22226 1.47009 3.24485C1.47565 3.26743 1.48174 3.28987 1.48838 3.31216C1.49502 3.33445 1.50219 3.35657 1.50988 3.37851C1.51759 3.40045 1.52582 3.42221 1.53458 3.44375C1.54333 3.4653 1.5526 3.48663 1.56238 3.50772C1.57216 3.52882 1.58245 3.54968 1.59324 3.57029C1.60403 3.59089 1.6153 3.61123 1.62708 3.63129C1.63885 3.65134 1.65109 3.67111 1.66381 3.69059C1.67653 3.71005 1.68972 3.7292 1.70337 3.74805C1.71702 3.76688 1.73111 3.78537 1.74565 3.80352C1.76019 3.82168 1.77515 3.83948 1.79055 3.85691C1.80596 3.87434 1.82175 3.89139 1.83797 3.90806C1.85419 3.92472 1.8708 3.94099 1.88781 3.95686C1.90482 3.97273 1.92219 3.98818 1.93994 4.00321C1.95769 4.01824 1.9758 4.03283 1.99425 4.04699C2.0127 4.06114 2.03149 4.07485 2.0506 4.0881C2.06972 4.10134 2.08915 4.11413 2.10888 4.12644C2.1286 4.13875 2.14863 4.15059 2.16893 4.16193C2.18924 4.17327 2.2098 4.18413 2.23061 4.19448C2.25145 4.20483 2.27251 4.21469 2.29381 4.22403C2.31511 4.23337 2.33663 4.24219 2.35835 4.2505C2.38009 4.2588 2.402 4.26657 2.4241 4.27381C2.44619 4.28105 2.46845 4.28775 2.49089 4.29393C2.51331 4.3001 2.53587 4.30572 2.55857 4.3108C2.58127 4.31588 2.60407 4.32043 2.62698 4.32441C2.6499 4.3284 2.67291 4.33181 2.69599 4.33469C2.71907 4.33756 2.74219 4.33987 2.76539 4.34162C2.78858 4.34339 2.8118 4.34459 2.83505 4.34521C2.85847 4.34495 2.88187 4.34412 2.90524 4.34272C2.92861 4.3413 2.95194 4.33933 2.97523 4.33678C2.9985 4.33422 3.02169 4.33111 3.04483 4.32742C3.06796 4.32372 3.09098 4.31948 3.1139 4.31466C3.1368 4.30984 3.15959 4.30447 3.18225 4.29854C3.20491 4.2926 3.2274 4.28612 3.24974 4.27908C3.27207 4.27206 3.29422 4.26448 3.31619 4.25635C3.33815 4.24824 3.3599 4.23958 3.38145 4.2304C3.40298 4.22121 3.42429 4.21151 3.44536 4.20127C3.46642 4.19104 3.48721 4.18031 3.50775 4.16905C3.52829 4.1578 3.54855 4.14606 3.56851 4.13381C3.58847 4.12156 3.60812 4.10885 3.62746 4.09564C3.6468 4.08243 3.66581 4.06876 3.68448 4.05463C3.70315 4.04048 3.72146 4.0259 3.73942 4.01086C3.75737 3.99584 3.77495 3.98037 3.79213 3.96447C3.80933 3.94857 3.82613 3.93226 3.84253 3.91555C3.85892 3.89883 3.87491 3.88172 3.89047 3.86422C3.90601 3.84672 3.92114 3.82885 3.93582 3.8106C3.95051 3.79237 3.96474 3.77377 3.97851 3.75483C3.99228 3.7359 4.00558 3.71663 4.01841 3.69704C4.03124 3.67743 4.04358 3.65753 4.05543 3.63734C4.06728 3.61715 4.07864 3.59667 4.08949 3.57593C4.10034 3.55517 4.11066 3.53416 4.12048 3.51291C4.13031 3.49165 4.13961 3.47016 4.14837 3.44844C4.15714 3.42673 4.16537 3.4048 4.17307 3.38269C4.18076 3.36057 4.1879 3.33828 4.1945 3.31581C4.2011 3.29334 4.20714 3.27073 4.21264 3.24797C4.21813 3.2252 4.22307 3.20231 4.22743 3.17932C4.2318 3.15631 4.23561 3.13321 4.23885 3.11002C4.24209 3.08682 4.24476 3.06355 4.24685 3.04024C4.24895 3.01691 4.25048 2.99355 4.25143 2.97015C4.25238 2.94675 4.25276 2.92334 4.25257 2.89993C4.25257 2.51886 4.10634 2.15275 3.84269 1.87736C3.83453 1.86897 3.82628 1.86069 3.81791 1.8525C3.80956 1.84431 3.80111 1.83624 3.79254 1.82825C3.78397 1.82028 3.77531 1.81241 3.76655 1.80466C3.7578 1.79691 3.74893 1.78926 3.73999 1.78172C3.73104 1.77419 3.72199 1.76678 3.71285 1.75948C3.70371 1.75216 3.69448 1.74498 3.68517 1.7379C3.67584 1.73082 3.66644 1.72387 3.65695 1.71704C3.64745 1.71019 3.63787 1.70348 3.6282 1.69688C3.61855 1.69029 3.6088 1.68381 3.59898 1.67746C3.58915 1.67111 3.57926 1.66488 3.56927 1.65878C3.55928 1.65267 3.54923 1.6467 3.53909 1.64085C3.52896 1.63499 3.51876 1.62927 3.5085 1.62368C3.49822 1.61809 3.48787 1.61261 3.47746 1.60729C3.46705 1.60196 3.45657 1.59675 3.44603 1.59168C3.43547 1.5866 3.42488 1.58167 3.4142 1.57686C3.40353 1.57206 3.39282 1.56739 3.38203 1.56285C3.37124 1.55831 3.36041 1.55391 3.3495 1.54965C3.33861 1.54539 3.32766 1.54126 3.31667 1.53727C3.30568 1.53329 3.29463 1.52943 3.28353 1.52572C3.27242 1.52202 3.26128 1.51844 3.2501 1.51501C3.23892 1.51158 3.22769 1.50829 3.21642 1.50514C3.20515 1.502 3.19385 1.49899 3.18251 1.49612C3.17117 1.49326 3.15978 1.49054 3.14838 1.48796C3.13696 1.48537 3.12552 1.48294 3.11404 1.48064C3.10257 1.47835 3.09107 1.47621 3.07955 1.47421C3.06803 1.47221 3.05647 1.47034 3.04489 1.46863C3.03331 1.46692 3.02172 1.46534 3.01012 1.46393C2.99851 1.46251 2.98688 1.46123 2.97523 1.4601C2.96359 1.45898 2.95193 1.45799 2.94026 1.45716C2.9286 1.45632 2.91692 1.45563 2.90523 1.45509C2.89353 1.45455 2.88184 1.45415 2.87015 1.4539C2.85845 1.45365 2.84674 1.45355 2.83505 1.45359Z"   fill="#757575" >
</path>
</svg>
